<svg width="36" height="36" viewBox="0 0 36 36" fill="none" xmlns="http://www.w3.org/2000/svg">
<g clip-path="url(#clip0)">
<path d="M35.0609 17.219C34.722 15.5581 33.7906 13.849 32.1825 13.3128C30.8522 12.8693 29.2114 13.3888 28.0818 12.5578C25.3316 10.5346 26.5905 7.58762 21.8184 8.0308C20.7598 8.1291 19.5452 7.9787 18.8822 7.1474C18.2057 6.29901 18.3917 5.08014 18.1905 4.01385C17.7905 1.89414 15.729 0.281451 13.5803 0.0910445C6.99618 -0.492268 4.16104 1.72377 1.61579 6.84203C1.04176 7.99635 0.491286 9.32301 0.890169 10.549C2.22997 14.6665 7.65079 12.7469 10.9277 13.0837C15.5057 13.5542 12.8718 17.6787 15.6793 18.4966C16.283 18.6725 16.9043 18.2892 17.5272 18.204C19.2243 17.9719 20.7307 19.6936 20.8128 21.4045C20.9735 24.7505 18.7176 27.7672 17.2157 30.6527C16.0398 32.9117 16.3773 35.416 19.0505 35.884C27.2242 37.3149 36.6905 25.2063 35.0609 17.219Z" fill="url(#paint0_linear)"/>
<g opacity="0.1">
<path opacity="0.1" d="M31.2994 20.7861H27.7605L27.1127 19.904C26.9174 19.6384 26.5205 19.6384 26.3257 19.904L25.6775 20.7861H24.3465C23.9748 20.7861 23.6734 21.0875 23.6734 21.4592V22.7926L21.8361 21.7504V20.3158C23.2074 19.6836 24.1815 18.3285 24.2588 16.7261L24.2723 16.4465C24.4612 16.5279 24.6704 16.571 24.8905 16.5647C25.6425 16.5433 26.2669 15.932 26.3029 15.1806C26.3428 14.3439 25.6763 13.653 24.8484 13.653C24.6932 13.653 24.544 13.6778 24.4037 13.7228L24.4095 13.603C24.5278 11.1494 22.6167 9.04377 20.1606 9.00467C19.763 8.99835 19.3782 9.04644 19.0122 9.14031C17.9121 6.0924 14.9911 3.91496 11.5621 3.92214C7.19553 3.93128 3.59897 7.60574 3.67955 11.9716C3.71211 13.7364 4.32333 15.3597 5.33154 16.6598C6.72127 18.4521 7.74502 20.4965 8.29149 22.6898C8.02205 22.7882 7.82911 23.0462 7.82911 23.3497V26.2395C7.82911 27.01 8.45004 27.6357 9.21842 27.6449C9.4475 28.4156 10.0434 29.028 10.804 29.28L9.81122 33.8404C9.76355 34.0596 9.93047 34.2668 10.1548 34.2668H30.0272C30.2514 34.2668 30.4184 34.0596 30.3707 33.8404L28.8348 26.7821H31.2995C31.6712 26.7821 31.9725 26.4807 31.9725 26.109V21.4592C31.9725 21.0874 31.6712 20.7861 31.2994 20.7861ZM18.3457 21.7504L15.3286 23.4617V23.3495C15.3286 23.0471 15.1373 22.7898 14.869 22.6906C15.2241 21.268 15.764 19.8988 16.4877 18.6303C16.9187 19.3667 17.5684 19.9572 18.3457 20.3156V21.7504Z" fill="#2626BC"/>
<path opacity="0.1" d="M18.8229 5.64566C18.9129 5.64566 19.0029 5.61135 19.0715 5.54272L19.5587 5.0556C19.696 4.91828 19.696 4.69574 19.5588 4.55842C19.4214 4.4211 19.1989 4.42117 19.0616 4.55835L18.5744 5.04547C18.4371 5.18279 18.4371 5.40533 18.5743 5.54265C18.6429 5.61135 18.733 5.64566 18.8229 5.64566Z" fill="#2626BC"/>
<path opacity="0.1" d="M17.5727 4.98485C17.6032 4.993 17.6338 4.99687 17.6639 4.99687C17.8191 4.99687 17.9612 4.89323 18.0033 4.73622L18.1815 4.07078C18.2317 3.88319 18.1204 3.69046 17.9329 3.64019C17.7451 3.5897 17.5526 3.70136 17.5023 3.88881L17.3241 4.55425C17.2739 4.74178 17.3852 4.93457 17.5727 4.98485Z" fill="#2626BC"/>
<path opacity="0.1" d="M19.1911 6.60349C19.2333 6.76057 19.3753 6.86414 19.5305 6.86414C19.5606 6.86414 19.5913 6.8602 19.6217 6.85212L20.2872 6.67381C20.4747 6.62353 20.586 6.43073 20.5358 6.24321C20.4854 6.05576 20.2927 5.94474 20.1052 5.99459L19.4398 6.1729C19.2522 6.22317 19.1409 6.41597 19.1911 6.60349Z" fill="#2626BC"/>
</g>
<path d="M11.467 2.23491C7.11089 2.29552 3.5997 5.9278 3.68006 10.2836C3.71262 12.0484 4.32384 13.6717 5.33206 14.9718C6.86754 16.952 7.9583 19.2394 8.44971 21.6961H14.7105C15.207 19.2728 16.2337 16.9804 17.7718 15.0422C18.8415 13.6944 19.4804 11.9893 19.4804 10.1349C19.4804 5.73395 15.8821 2.17346 11.467 2.23491Z" fill="#FFA8CF"/>
<path d="M13.6402 17.3448C13.3219 18.7065 13.0927 20.1756 12.9556 21.6959H10.2029C10.0683 20.1622 9.83035 18.6956 9.50649 17.3284C9.48533 17.239 9.52358 17.1457 9.6031 17.0996C9.69423 17.0468 9.7779 16.9799 9.8506 16.9005L10.1591 16.5631C10.2427 16.4716 10.3867 16.4716 10.4703 16.5629L10.7794 16.9005C10.9784 17.1184 11.2618 17.2436 11.5578 17.2436C11.8531 17.2436 12.1365 17.1184 12.3354 16.9005L12.6451 16.5623C12.7288 16.4709 12.8729 16.4709 12.9564 16.5625L13.2657 16.9012C13.3441 16.9868 13.4356 17.0579 13.5358 17.1125C13.6191 17.158 13.6617 17.2524 13.6402 17.3448Z" fill="#FFC4DF"/>
<path d="M19.4799 10.1348C19.4799 11.9896 18.8408 13.6947 17.7713 15.0426C17.116 15.8681 16.5535 16.7575 16.0853 17.6948C15.9953 17.3854 15.9397 17.0613 15.9235 16.7259L15.9095 16.446C15.733 16.522 15.5382 16.5649 15.3336 16.5649C14.5292 16.5649 13.8774 15.9131 13.8774 15.1087C13.8774 14.3043 14.5292 13.6525 15.3336 13.6525C15.489 13.6525 15.6381 13.6771 15.7787 13.7221L15.7696 13.5386C15.662 11.3027 17.2672 9.39649 19.4068 9.05688C19.4553 9.40915 19.4799 9.76915 19.4799 10.1348Z" fill="#FF7EB8"/>
<path d="M14.0437 16.5407C13.945 16.5407 13.8509 16.4992 13.7843 16.4265L12.8005 15.351L11.8169 16.4264C11.7503 16.4992 11.6562 16.5407 11.5575 16.5407C11.4589 16.5407 11.3647 16.4992 11.2981 16.4264L10.3147 15.351L9.33163 16.4264C9.26505 16.4992 9.1709 16.5407 9.07218 16.5407C8.97353 16.5407 8.87938 16.4992 8.8128 16.4264L7.56988 15.0673C7.43882 14.9241 7.44874 14.7017 7.59203 14.5707C7.73533 14.4396 7.95766 14.4495 8.08865 14.5929L9.07204 15.6682L10.0551 14.5929C10.1217 14.52 10.2158 14.4785 10.3145 14.4785C10.4132 14.4785 10.5073 14.52 10.5739 14.5929L11.5574 15.6683L12.541 14.5928C12.6076 14.52 12.7018 14.4785 12.8004 14.4785C12.8991 14.4785 12.9932 14.52 13.0598 14.5928L14.0436 15.6683L15.0274 14.5928C15.1585 14.4495 15.3808 14.4396 15.5241 14.5707C15.6673 14.7018 15.6772 14.9241 15.5461 15.0674L14.3029 16.4265C14.2366 16.4992 14.1424 16.5407 14.0437 16.5407Z" fill="#FF5BA8"/>
<path d="M15.5465 15.0669L14.4503 16.2658C14.2197 16.0907 14.0439 15.8474 13.9511 15.5669L14.0439 15.6681L15.0276 14.5923C15.1584 14.4496 15.3806 14.4397 15.524 14.5705C15.6674 14.7013 15.6773 14.9242 15.5465 15.0669Z" fill="#FE2C8F"/>
<path d="M11.5789 27.7168C12.9392 27.7168 14.0418 26.6141 14.0418 25.2539C14.0418 23.8937 12.9392 22.791 11.5789 22.791C10.2187 22.791 9.11603 23.8937 9.11603 25.2539C9.11603 26.6141 10.2187 27.7168 11.5789 27.7168Z" fill="#8399FE"/>
<path d="M15.3286 21.6615V24.5513C15.3286 25.3276 14.6993 25.9576 13.9224 25.9576H9.23535C8.4591 25.9576 7.8291 25.3276 7.8291 24.5513V21.6615C7.8291 21.2734 8.1441 20.9584 8.53223 20.9584H14.6255C15.0144 20.9584 15.3286 21.2734 15.3286 21.6615Z" fill="#D2DEFF"/>
<path d="M7.8291 22.0222H15.3286V22.7253H7.8291V22.0222Z" fill="#8399FE"/>
<path d="M7.8291 23.3489H15.3286V24.052H7.8291V23.3489Z" fill="#8399FE"/>
<path d="M30.4634 32.5783H9.71838L11.4776 24.4966C11.562 24.1056 11.8095 23.7695 12.1575 23.572L18.3457 20.062V17.9512H21.836V20.062L28.0242 23.572C28.3723 23.7695 28.6198 24.1056 28.7049 24.4966L30.4634 32.5783Z" fill="#8399FE"/>
<path d="M29.2019 26.7814H24.3461C23.9749 26.7814 23.6732 26.4797 23.6732 26.1078V21.458C23.6732 21.3462 23.7006 21.24 23.7499 21.1472L28.0242 23.5716C28.3722 23.7692 28.6197 24.1053 28.7048 24.4962L29.2019 26.7814Z" fill="#6583FE"/>
<path d="M25.9744 27.4665L26.6405 32.5779H25.9317L25.2769 27.5574C25.2518 27.3649 25.3874 27.1884 25.58 27.1632C25.7727 27.138 25.9493 27.2738 25.9744 27.4665Z" fill="#6583FE"/>
<path d="M14.9049 27.5575L14.2501 32.578H13.5413L14.2074 27.4666C14.2325 27.2738 14.4092 27.1381 14.6018 27.1633C14.7944 27.1885 14.93 27.3649 14.9049 27.5575Z" fill="#6583FE"/>
<path d="M22.0729 20.1961C21.4823 20.516 20.8066 20.6967 20.0908 20.6967C19.375 20.6967 18.6993 20.516 18.1087 20.1961L18.3457 20.0618V17.951H21.836V20.0618L22.0729 20.1961Z" fill="#6583FE"/>
<path d="M24.8485 14.8773C25.6527 14.8773 26.3047 14.2254 26.3047 13.4211C26.3047 12.6169 25.6527 11.965 24.8485 11.965C24.0443 11.965 23.3923 12.6169 23.3923 13.4211C23.3923 14.2254 24.0443 14.8773 24.8485 14.8773Z" fill="#8399FE"/>
<path d="M15.3337 14.8772C16.138 14.8772 16.7899 14.2252 16.7899 13.421C16.7899 12.6168 16.138 11.9648 15.3337 11.9648C14.5295 11.9648 13.8776 12.6168 13.8776 13.421C13.8776 14.2252 14.5295 14.8772 15.3337 14.8772Z" fill="#8399FE"/>
<path d="M15.7695 11.8509L15.9232 15.0378C16.0305 17.2615 17.8647 19.0093 20.091 19.0093C22.3173 19.0093 24.1515 17.2615 24.2588 15.0378L24.4126 11.8509C24.5317 9.38235 22.5624 7.3158 20.091 7.3158C17.6197 7.3158 15.6504 9.38235 15.7695 11.8509Z" fill="#9FB0FE"/>
<path d="M9.15729 10.2712C9.54561 10.2712 9.86041 9.95644 9.86041 9.56811C9.86041 9.17979 9.54561 8.86499 9.15729 8.86499C8.76896 8.86499 8.45416 9.17979 8.45416 9.56811C8.45416 9.95644 8.76896 10.2712 9.15729 10.2712Z" fill="white"/>
<path d="M11.579 10.2706C11.9673 10.2706 12.2821 9.95583 12.2821 9.56751C12.2821 9.17918 11.9673 8.86438 11.579 8.86438C11.1907 8.86438 10.8759 9.17918 10.8759 9.56751C10.8759 9.95583 11.1907 10.2706 11.579 10.2706Z" fill="white"/>
<path d="M14.0009 10.2706C14.3892 10.2706 14.704 9.95583 14.704 9.56751C14.704 9.17918 14.3892 8.86438 14.0009 8.86438C13.6125 8.86438 13.2977 9.17918 13.2977 9.56751C13.2977 9.95583 13.6125 10.2706 14.0009 10.2706Z" fill="white"/>
<path d="M31.9726 24.421V19.7712C31.9726 19.3995 31.6712 19.0982 31.2995 19.0982H27.7606L27.1127 18.216C26.9175 17.9505 26.5205 17.9505 26.3258 18.216L25.6775 19.0982H24.3466C23.9748 19.0982 23.6735 19.3995 23.6735 19.7712V24.421C23.6735 24.7928 23.9749 25.0941 24.3466 25.0941H31.2995C31.6712 25.0941 31.9726 24.7928 31.9726 24.421Z" fill="#02FFB3"/>
<path d="M30.0935 21.6956H27.0994C26.9053 21.6956 26.7479 21.5382 26.7479 21.344C26.7479 21.1498 26.9053 20.9924 27.0994 20.9924H30.0935C30.2877 20.9924 30.4451 21.1498 30.4451 21.344C30.4451 21.5382 30.2877 21.6956 30.0935 21.6956Z" fill="white"/>
<path d="M25.5527 21.6957C25.7468 21.6957 25.9042 21.5383 25.9042 21.3441C25.9042 21.15 25.7468 20.9926 25.5527 20.9926C25.3585 20.9926 25.2011 21.15 25.2011 21.3441C25.2011 21.5383 25.3585 21.6957 25.5527 21.6957Z" fill="#FF5BA8"/>
<path d="M30.0936 23.1289H25.5526C25.3585 23.1289 25.201 22.9715 25.201 22.7773C25.201 22.5831 25.3585 22.4258 25.5526 22.4258H30.0936C30.2878 22.4258 30.4452 22.5831 30.4452 22.7773C30.4452 22.9715 30.2878 23.1289 30.0936 23.1289Z" fill="white"/>
<path d="M29.579 26.861C29.5377 26.6713 29.3504 26.5508 29.1608 26.5923C28.9711 26.6336 28.8507 26.8209 28.892 27.0106L30.1198 32.653C30.1557 32.8175 30.3012 32.9299 30.463 32.9299C30.4878 32.9299 30.5129 32.9273 30.5381 32.9218C30.7278 32.8805 30.8481 32.6932 30.8068 32.5035L29.579 26.861Z" fill="#2626BC"/>
<path d="M18.8231 3.95828C18.913 3.95828 19.003 3.92397 19.0716 3.85534L19.5588 3.36822C19.6961 3.2309 19.6961 3.00836 19.5589 2.87104C19.4216 2.73372 19.199 2.73379 19.0617 2.87097L18.5745 3.35809C18.4372 3.49541 18.4372 3.71795 18.5744 3.85527C18.6431 3.92397 18.7331 3.95828 18.8231 3.95828Z" fill="#2626BC"/>
<path d="M17.5727 3.29686C17.6033 3.30501 17.6338 3.30888 17.6639 3.30888C17.8192 3.30888 17.9613 3.20524 18.0033 3.04823L18.1816 2.38279C18.2318 2.1952 18.1205 2.00247 17.933 1.9522C17.7451 1.90172 17.5526 2.01337 17.5024 2.20083L17.3241 2.86626C17.2739 3.05379 17.3852 3.24658 17.5727 3.29686Z" fill="#2626BC"/>
<path d="M19.1913 4.91587C19.2335 5.07295 19.3755 5.17652 19.5307 5.17652C19.5608 5.17652 19.5915 5.17258 19.6219 5.1645L20.2873 4.98618C20.4749 4.93591 20.5862 4.74311 20.536 4.55559C20.4856 4.36814 20.2929 4.25711 20.1054 4.30696L19.4399 4.48528C19.2523 4.53555 19.1411 4.72835 19.1913 4.91587Z" fill="#2626BC"/>
<path d="M31.2996 18.7465H27.9386L27.396 18.0076C27.236 17.7899 26.9893 17.6651 26.7191 17.6651C26.719 17.6651 26.7188 17.6651 26.7186 17.6651C26.4485 17.6653 26.202 17.7902 26.0425 18.0077L25.4995 18.7465H24.3466C23.7816 18.7465 23.322 19.2062 23.322 19.7711V20.5011L22.1876 19.8573V18.8483C23.5234 18.1501 24.4675 16.803 24.5987 15.2112C24.6808 15.2225 24.7641 15.2287 24.8483 15.2287C25.8451 15.2287 26.656 14.4178 26.656 13.421C26.656 12.4242 25.8451 11.6133 24.8483 11.6133C24.8218 11.6133 24.7955 11.6152 24.7691 11.6163C24.7644 10.4184 24.3113 9.28992 23.4778 8.4153C22.5863 7.47958 21.3835 6.96433 20.091 6.96433C19.7993 6.96433 19.5125 6.99197 19.2325 7.04336C17.9767 3.93274 14.9483 1.88257 11.5779 1.88257C11.5393 1.88257 11.5003 1.88285 11.4616 1.88334C9.26256 1.91393 7.20198 2.80802 5.65961 4.40102C4.1154 5.99592 3.28733 8.08736 3.32783 10.2902C3.36137 12.0808 3.95819 13.7741 5.05379 15.1867C6.0137 16.4256 6.78285 17.7691 7.3398 19.18C7.39429 19.3182 7.52676 19.4025 7.66682 19.4025C7.70978 19.4025 7.75344 19.3947 7.79584 19.3779C7.9764 19.3066 8.06507 19.1024 7.9937 18.9218C7.41236 17.449 6.61023 16.0474 5.60947 14.7559C4.60738 13.4638 4.06147 11.915 4.03082 10.2772C3.99376 8.26286 4.75159 6.34973 6.1648 4.89018C7.57605 3.43261 9.4607 2.61445 11.4714 2.58654C11.507 2.58597 11.5424 2.58576 11.5779 2.58576C14.6312 2.58576 17.3774 4.42563 18.546 7.22463C17.8552 7.46517 17.2262 7.86757 16.7044 8.41523C15.871 9.28985 15.4178 10.4184 15.4131 11.6163C15.3866 11.6152 15.3603 11.6132 15.3337 11.6132C14.3369 11.6132 13.526 12.4241 13.526 13.4209C13.526 14.4177 14.3369 15.2287 15.3337 15.2287C15.4181 15.2287 15.5014 15.2225 15.5835 15.2111C15.6348 15.8337 15.8096 16.419 16.0846 16.9425C15.4517 18.0852 14.9553 19.3156 14.6071 20.6069H8.5323C7.95074 20.6069 7.47761 21.0801 7.47761 21.6616V24.5507C7.47761 25.4268 8.12195 26.1552 8.96162 26.2871C9.22726 26.9603 9.74202 27.5053 10.3971 27.8083L9.37499 32.5035C9.33372 32.6932 9.45402 32.8805 9.64372 32.9218C9.6689 32.9273 9.69407 32.9299 9.71882 32.9299C9.88061 32.9299 10.0262 32.8175 10.062 32.653L11.5041 26.0287C11.5042 26.0282 11.5043 26.0276 11.5044 26.027L11.8213 24.5714C11.8851 24.2781 12.0708 24.0257 12.3311 23.8784L18.5193 20.3677C18.6294 20.3053 18.6974 20.1885 18.6974 20.0619V19.1417C19.1369 19.2835 19.605 19.3612 20.0912 19.3612C20.5772 19.3612 21.0452 19.2836 21.4846 19.1418V20.0621C21.4846 20.1887 21.5526 20.3054 21.6626 20.3679L23.322 21.3098V24.4211C23.322 24.9861 23.7817 25.4457 24.3466 25.4457H31.2996C31.8646 25.4457 32.3242 24.9861 32.3242 24.4211V19.7713C32.3242 19.2062 31.8646 18.7465 31.2996 18.7465ZM25.9529 13.4211C25.9529 14.0301 25.4574 14.5257 24.8483 14.5257C24.7763 14.5257 24.7056 14.5184 24.6366 14.5049L24.7419 12.3221C24.7772 12.3188 24.8127 12.3164 24.8484 12.3164C25.4574 12.3164 25.9529 12.812 25.9529 13.4211ZM14.229 13.4211C14.229 12.812 14.7246 12.3164 15.3336 12.3164C15.3694 12.3164 15.4049 12.3188 15.4403 12.3221L15.5456 14.5049C15.4765 14.5184 15.4058 14.5256 15.3337 14.5256C14.7246 14.5257 14.229 14.0301 14.229 13.4211ZM9.74955 26.3086H10.7235L10.5515 27.0989C10.2172 26.9128 9.94009 26.6392 9.74955 26.3086ZM11.9845 23.2667C11.5504 23.5122 11.2405 23.9333 11.1341 24.4219L10.8765 25.6055H9.23542C8.65387 25.6055 8.18073 25.1324 8.18073 24.5508V21.6617C8.18073 21.4678 8.33844 21.3101 8.5323 21.3101H14.6256C14.7896 21.3101 14.9266 21.4235 14.9653 21.5757L11.9845 23.2667ZM17.9942 19.8573L15.5842 21.2245C15.5136 21.0701 15.407 20.9359 15.2748 20.8322C15.5754 19.7055 15.9932 18.6272 16.5201 17.6168C16.9166 18.1259 17.419 18.5474 17.9942 18.8481V19.8573H17.9942ZM20.091 18.658C18.0493 18.658 16.3728 17.0604 16.2744 15.021L16.1206 11.8341C16.0677 10.7372 16.4558 9.69541 17.2133 8.90039C17.9708 8.10529 18.9929 7.66753 20.0911 7.66753C21.1892 7.66753 22.2112 8.10536 22.9689 8.90039C23.7263 9.69541 24.1145 10.7372 24.0615 11.8341L23.9077 15.021C23.8094 17.0605 22.1328 18.658 20.091 18.658ZM31.6211 24.421C31.6211 24.5982 31.4769 24.7424 31.2996 24.7424H24.3466C24.1694 24.7424 24.0252 24.5982 24.0252 24.421V19.7711C24.0252 19.5939 24.1694 19.4496 24.3466 19.4496H25.6776C25.7894 19.4496 25.8946 19.3964 25.9609 19.3063L26.6094 18.4238C26.6449 18.3755 26.6933 18.3682 26.7192 18.3682H26.7193C26.7451 18.3682 26.7939 18.3756 26.8295 18.4239L27.4773 19.3061C27.5435 19.3964 27.6487 19.4496 27.7607 19.4496H31.2996C31.4769 19.4496 31.6211 19.5939 31.6211 19.7711V24.421Z" fill="#2626BC"/>
<path d="M22.6481 6.08641C22.5581 6.08641 22.4681 6.0521 22.3995 5.9834L21.6612 5.24512C21.5239 5.10787 21.5239 4.88526 21.6612 4.74801L22.3995 4.00973C22.5367 3.87241 22.7594 3.87241 22.8966 4.00973L23.6349 4.74801C23.7722 4.88526 23.7722 5.10787 23.6349 5.24512L22.8966 5.9834C22.8281 6.0521 22.7381 6.08641 22.6481 6.08641ZM22.407 4.99657L22.6481 5.23767L22.8892 4.99657L22.6481 4.75546L22.407 4.99657Z" fill="#FF7EB8"/>
<path d="M6.4279 29.2466C6.33797 29.2466 6.2479 29.2123 6.17935 29.1436L5.44106 28.4053C5.30374 28.268 5.30374 28.0454 5.44106 27.9082L6.17935 27.1699C6.31653 27.0326 6.53928 27.0326 6.67646 27.1699L7.41474 27.9082C7.55206 28.0454 7.55206 28.268 7.41474 28.4053L6.67646 29.1436C6.60783 29.2123 6.51783 29.2466 6.4279 29.2466ZM6.1868 28.1567L6.4279 28.3978L6.669 28.1567L6.4279 27.9156L6.1868 28.1567Z" fill="#02FFB3"/>
<path d="M28.8393 16.8088C28.7493 16.8088 28.6593 16.7745 28.5907 16.7058L27.8524 15.9675C27.7151 15.8303 27.7151 15.6077 27.8524 15.4704L28.5907 14.7321C28.7279 14.5948 28.9506 14.5948 29.0878 14.7321L29.8261 15.4704C29.9634 15.6077 29.9634 15.8303 29.8261 15.9675L29.0878 16.7058C29.0193 16.7744 28.9292 16.8088 28.8393 16.8088ZM28.5982 15.719L28.8393 15.9601L29.0804 15.719L28.8393 15.4779L28.5982 15.719Z" fill="#FF7EB8"/>
<path d="M2.40892 17.578C2.31899 17.578 2.22892 17.5437 2.16036 17.475C2.02304 17.3377 2.02304 17.1151 2.16036 16.9779L2.86349 16.2747C3.00067 16.1374 3.22342 16.1374 3.3606 16.2747C3.49792 16.412 3.49792 16.6346 3.3606 16.7719L2.65747 17.475C2.58885 17.5437 2.49885 17.578 2.40892 17.578Z" fill="#FF7EB8"/>
<path d="M32.1704 29.2114C32.0805 29.2114 31.9904 29.1771 31.9218 29.1084C31.7845 28.9711 31.7845 28.7485 31.9218 28.6113L32.625 27.9082C32.7621 27.7708 32.9849 27.7708 33.1221 27.9082C33.2594 28.0454 33.2594 28.268 33.1221 28.4053L32.4189 29.1084C32.3504 29.1771 32.2603 29.2114 32.1704 29.2114Z" fill="#6583FE"/>
</g>
<defs>
<linearGradient id="paint0_linear" x1="8.14297" y1="25.8684" x2="26.6925" y2="7.3189" gradientUnits="userSpaceOnUse">
<stop stop-color="#FFDBED"/>
<stop offset="1" stop-color="#DCFDEE"/>
</linearGradient>
<clipPath id="clip0">
<rect width="36" height="36" fill="white"/>
</clipPath>
</defs>
</svg>
