<svg width="81" height="80" viewBox="0 0 81 80" fill="none" xmlns="http://www.w3.org/2000/svg">
<rect x="0.668945" y="0.666504" width="79.3333" height="79.3333" rx="16.6667" fill="#F8F9FC"/>
<path d="M63.7676 28.5153C65.7895 24.0956 63.6362 18.2382 59.5404 15.7583C51.4042 11.1412 48.6021 22.5346 42.0729 24.5718C35.9711 26.4757 29.6999 23.3902 23.6035 22.9162C16.0979 22.3325 15.5303 32.2726 19.9823 36.3508C24.4644 40.4567 31.6507 36.8111 36.2691 39.9804C40.2009 42.6786 38.999 48.2518 38.6248 52.3946C37.2899 67.1754 53.5779 71.1389 61.5597 60.8737C63.3249 58.6034 63.6209 55.1789 62.0828 52.7489C60.5393 50.3104 57.4706 49.2437 55.7084 46.9583C53.1458 43.6347 54.1812 38.5405 57.0225 35.4517C59.2211 33.0614 62.4165 31.4686 63.7676 28.5153Z" fill="url(#paint0_linear)"/>
<path opacity="0.1" d="M60.7444 38.8862L60.6823 38.8805V21.4578C60.6823 20.3374 59.7741 19.4292 58.6537 19.4292H22.8465C21.7261 19.4292 20.8179 20.3374 20.8179 21.4578V49.2055C20.2067 49.33 19.7373 49.8693 19.7373 50.5279V61.9172C19.7373 62.6632 20.342 63.2679 21.0881 63.2679H32.8057L33.9512 64.7234C34.2757 65.1357 34.9004 65.1357 35.225 64.7234L36.3706 63.2679H38.6981C39.4441 63.2679 40.0489 62.6632 40.0489 61.9172V57.3131H43.7673L44.9128 58.7685C45.2373 59.1809 45.862 59.1809 46.1866 58.7685L47.3322 57.3131H49.6597C50.3537 57.3131 50.9248 56.7896 51.0012 56.116H58.6538C59.7742 56.116 60.6824 55.2078 60.6824 54.0874V51.3551C61.3998 51.3228 61.972 50.7327 61.972 50.0074V40.2314C61.9719 39.5331 61.4397 38.9499 60.7444 38.8862Z" fill="#2626BC"/>
<path d="M58.6512 53.6815H22.8441C21.7236 53.6815 20.8154 52.7733 20.8154 51.6529V19.0233C20.8154 17.9028 21.7236 16.9946 22.8441 16.9946H58.6513C59.7718 16.9946 60.68 17.9028 60.68 19.0233V51.6529C60.6799 52.7733 59.7717 53.6815 58.6512 53.6815Z" fill="white"/>
<path d="M60.6807 38.8802V51.3563C60.6604 51.3583 60.6401 51.3583 60.6198 51.3583H58.292L57.1468 52.8139C56.8222 53.2257 56.1974 53.2257 55.8728 52.8139L54.7267 51.3583H43.0093C42.2638 51.3583 41.6582 50.7538 41.6582 50.0073V38.6185C41.6582 37.8233 42.3408 37.2005 43.133 37.2725L60.6807 38.8802Z" fill="#D2DEFF"/>
<path d="M45.8515 53.6816H24.3232V37.9584C24.3232 37.3982 24.7774 36.9441 25.3376 36.9441H45.8514V53.6816H45.8515Z" fill="#FFC4DF"/>
<path d="M60.6799 24.0002V19.0233C60.6799 17.9028 59.7717 16.9946 58.6512 16.9946H22.8441C21.7236 16.9946 20.8154 17.9028 20.8154 19.0233V24.0002H60.6799Z" fill="#6583FE"/>
<path d="M24.3236 21.1061C24.6037 21.1061 24.8307 20.8791 24.8307 20.599C24.8307 20.3189 24.6037 20.0918 24.3236 20.0918C24.0435 20.0918 23.8164 20.3189 23.8164 20.599C23.8164 20.8791 24.0435 21.1061 24.3236 21.1061Z" fill="white"/>
<path d="M26.055 21.1061C26.3351 21.1061 26.5622 20.8791 26.5622 20.599C26.5622 20.3189 26.3351 20.0918 26.055 20.0918C25.7749 20.0918 25.5479 20.3189 25.5479 20.599C25.5479 20.8791 25.7749 21.1061 26.055 21.1061Z" fill="white"/>
<path d="M27.7874 21.1061C28.0675 21.1061 28.2946 20.8791 28.2946 20.599C28.2946 20.3189 28.0675 20.0918 27.7874 20.0918C27.5073 20.0918 27.2803 20.3189 27.2803 20.599C27.2803 20.8791 27.5073 21.1061 27.7874 21.1061Z" fill="white"/>
<path d="M48.8186 22.1121H32.6781C32.398 22.1121 32.1709 21.885 32.1709 21.6049V19.5926C32.1709 19.3126 32.398 19.0854 32.6781 19.0854H48.8186C49.0986 19.0854 49.3257 19.3126 49.3257 19.5926V21.6049C49.3257 21.885 49.0986 22.1121 48.8186 22.1121Z" fill="#8399FE"/>
<path d="M56.4446 22.1122H55.0423C54.7623 22.1122 54.5352 21.8851 54.5352 21.6051V20.599C54.5352 20.3189 54.7623 20.0918 55.0423 20.0918H56.4446C56.7247 20.0918 56.9518 20.3189 56.9518 20.599V21.6051C56.9518 21.8851 56.7247 22.1122 56.4446 22.1122Z" fill="#8399FE"/>
<path d="M55.2356 21.102H53.8333C53.5533 21.102 53.3262 20.8749 53.3262 20.5948V19.5887C53.3262 19.3086 53.5533 19.0815 53.8333 19.0815H55.2356C55.5157 19.0815 55.7428 19.3086 55.7428 19.5887V20.5948C55.7428 20.875 55.5157 21.102 55.2356 21.102Z" fill="#B7C5FF"/>
<path d="M38.8184 48.3616L21.2084 46.7484C20.417 46.6759 19.7344 47.2989 19.7344 48.0936V59.4829C19.7344 60.2289 20.3391 60.8336 21.0851 60.8336H32.8027L33.9483 62.2891C34.2728 62.7014 34.8975 62.7014 35.2221 62.2891L36.3676 60.8336H38.6952C39.4412 60.8336 40.0459 60.2289 40.0459 59.4829V49.7069C40.0459 49.0085 39.5137 48.4253 38.8184 48.3616Z" fill="#8399FE"/>
<path d="M40.0453 49.7072V57.3135H32.0454C31.2998 57.3135 30.6953 56.708 30.6953 55.9625V47.6177L38.8169 48.3622C39.5128 48.4251 40.0453 49.0083 40.0453 49.7072Z" fill="#6583FE"/>
<path d="M19.7334 53.6272H29.7098V57.762H19.7334V53.6272Z" fill="#9FB0FE"/>
<path d="M23.1156 51.0773H26.4205C26.7006 51.0773 26.9277 50.8503 26.9277 50.5701C26.9277 50.29 26.7006 50.063 26.4205 50.063H23.1156C22.8354 50.063 22.6084 50.29 22.6084 50.5701C22.6084 50.8503 22.8354 51.0773 23.1156 51.0773Z" fill="#B7C5FF"/>
<path d="M23.1165 54.1344H30.073C30.3531 54.1344 30.5802 53.9074 30.5802 53.6273C30.5802 53.3471 30.3531 53.1201 30.073 53.1201H23.1165C22.8364 53.1201 22.6094 53.3471 22.6094 53.6273C22.6094 53.9074 22.8364 54.1344 23.1165 54.1344Z" fill="#D2DEFF"/>
<path d="M23.1165 56.2018H35.956C36.2361 56.2018 36.4632 55.9748 36.4632 55.6947C36.4632 55.4145 36.2361 55.1875 35.956 55.1875H23.1165C22.8364 55.1875 22.6094 55.4145 22.6094 55.6947C22.6094 55.9748 22.8364 56.2018 23.1165 56.2018Z" fill="#D2DEFF"/>
<path d="M36.4636 55.6947C36.4636 55.9746 36.2374 56.2018 35.9565 56.2018H30.7195C30.7053 56.1237 30.6982 56.0436 30.6982 55.9624V55.1875H35.9565C36.2374 55.1875 36.4636 55.4147 36.4636 55.6947Z" fill="#B7C5FF"/>
<path d="M23.1165 58.2692H35.956C36.2361 58.2692 36.4632 58.0422 36.4632 57.762C36.4632 57.4819 36.2361 57.2549 35.956 57.2549H23.1165C22.8364 57.2549 22.6094 57.4819 22.6094 57.762C22.6094 58.0422 22.8364 58.2692 23.1165 58.2692Z" fill="#D2DEFF"/>
<path d="M36.2611 51.7873C36.5412 51.7873 36.7682 51.5602 36.7682 51.2801C36.7682 51 36.5412 50.7729 36.2611 50.7729C35.981 50.7729 35.7539 51 35.7539 51.2801C35.7539 51.5602 35.981 51.7873 36.2611 51.7873Z" fill="#00D890"/>
<path d="M34.3822 51.7873C34.6623 51.7873 34.8893 51.5602 34.8893 51.2801C34.8893 51 34.6623 50.7729 34.3822 50.7729C34.1021 50.7729 33.875 51 33.875 51.2801C33.875 51.5602 34.1021 51.7873 34.3822 51.7873Z" fill="#00D890"/>
<path d="M32.5052 51.7873C32.7853 51.7873 33.0124 51.5602 33.0124 51.2801C33.0124 51 32.7853 50.7729 32.5052 50.7729C32.2251 50.7729 31.998 51 31.998 51.2801C31.998 51.5602 32.2251 51.7873 32.5052 51.7873Z" fill="#00D890"/>
<path d="M49.7802 42.4065L32.1703 40.7933C31.3789 40.7208 30.6963 41.3438 30.6963 42.1385V53.5278C30.6963 54.2738 31.301 54.8785 32.0471 54.8785H43.7646L44.9102 56.334C45.2347 56.7463 45.8594 56.7463 46.184 56.334L47.3295 54.8785H49.6571C50.4031 54.8785 51.0079 54.2738 51.0079 53.5278V43.7518C51.0078 43.0533 50.4755 42.4702 49.7802 42.4065Z" fill="#FF7EB8"/>
<path d="M51.0082 43.7518V51.3582H43.0083C42.2628 51.3582 41.6572 50.7537 41.6572 50.0071V41.6624L49.7799 42.4069C50.4757 42.4697 51.0082 43.053 51.0082 43.7518Z" fill="#FF5BA8"/>
<path d="M30.6953 47.6721H40.6717V51.8069H30.6953V47.6721Z" fill="#FFA8CF"/>
<path d="M34.0765 45.1222H37.3814C37.6615 45.1222 37.8886 44.8952 37.8886 44.6151C37.8886 44.3349 37.6615 44.1079 37.3814 44.1079H34.0765C33.7963 44.1079 33.5693 44.3349 33.5693 44.6151C33.5693 44.8952 33.7964 45.1222 34.0765 45.1222Z" fill="#FFC4DF"/>
<path d="M34.0765 48.1794H41.033C41.313 48.1794 41.5401 47.9524 41.5401 47.6722C41.5401 47.392 41.313 47.165 41.033 47.165H34.0765C33.7963 47.165 33.5693 47.392 33.5693 47.6722C33.5693 47.9524 33.7964 48.1794 34.0765 48.1794Z" fill="#FFDBED"/>
<path d="M47.4229 49.7393C47.4229 50.0193 47.1957 50.2465 46.9157 50.2465H34.0765C33.7965 50.2465 33.5693 50.0193 33.5693 49.7393C33.5693 49.4594 33.7965 49.2322 34.0765 49.2322H46.9157C47.1957 49.2322 47.4229 49.4594 47.4229 49.7393Z" fill="#FFDBED"/>
<path d="M47.4246 49.7393C47.4246 50.0193 47.1974 50.2465 46.9174 50.2465H41.6795C41.6653 50.1684 41.6582 50.0883 41.6582 50.0071V49.2322H46.9174C47.1974 49.2322 47.4246 49.4594 47.4246 49.7393Z" fill="#FFC4DF"/>
<path d="M34.0765 52.3141H46.916C47.1961 52.3141 47.4232 52.0871 47.4232 51.807C47.4232 51.5268 47.1961 51.2998 46.916 51.2998H34.0765C33.7963 51.2998 33.5693 51.5268 33.5693 51.807C33.5693 52.0871 33.7964 52.3141 34.0765 52.3141Z" fill="#FFDBED"/>
<path d="M47.223 45.8322C47.5031 45.8322 47.7301 45.6051 47.7301 45.325C47.7301 45.0449 47.5031 44.8179 47.223 44.8179C46.9429 44.8179 46.7158 45.0449 46.7158 45.325C46.7158 45.6051 46.9429 45.8322 47.223 45.8322Z" fill="#00D890"/>
<path d="M45.3441 45.8322C45.6242 45.8322 45.8512 45.6051 45.8512 45.325C45.8512 45.0449 45.6242 44.8179 45.3441 44.8179C45.064 44.8179 44.8369 45.0449 44.8369 45.325C44.8369 45.6051 45.064 45.8322 45.3441 45.8322Z" fill="#00D890"/>
<path d="M43.4642 45.8322C43.7443 45.8322 43.9713 45.6051 43.9713 45.325C43.9713 45.0449 43.7443 44.8179 43.4642 44.8179C43.1841 44.8179 42.957 45.0449 42.957 45.325C42.957 45.6051 43.1841 45.8322 43.4642 45.8322Z" fill="#00D890"/>
<path d="M60.7431 36.4517L43.1332 34.8385C42.3418 34.766 41.6592 35.389 41.6592 36.1837V47.5729C41.6592 48.319 42.2639 48.9237 43.0099 48.9237H54.7275L55.8731 50.3791C56.1976 50.7915 56.8223 50.7915 57.1469 50.3791L58.2924 48.9237H60.62C61.366 48.9237 61.9708 48.319 61.9708 47.5729V37.797C61.9707 37.0986 61.4384 36.5154 60.7431 36.4517Z" fill="#01ECA5"/>
<path d="M41.6592 41.7173H51.6356V45.852H41.6592V41.7173Z" fill="#02FFB3"/>
<path d="M60.79 35.9467L43.18 34.3335C42.6612 34.2861 42.143 34.4601 41.7581 34.8113C41.3732 35.1624 41.1525 35.6627 41.1525 36.1836V41.1067L32.2184 40.2881C31.6997 40.2408 31.1812 40.4152 30.7964 40.7666C30.4119 41.1177 30.1914 41.6176 30.1914 42.1381V53.5278C30.1914 54.5525 31.0246 55.3861 32.0486 55.3861H39.541V59.4827C39.541 59.9478 39.1625 60.3263 38.6974 60.3263H36.3699C36.2144 60.3263 36.0675 60.3976 35.9714 60.5198L34.8258 61.9753C34.7465 62.0759 34.6424 62.091 34.5875 62.091C34.5325 62.091 34.4284 62.076 34.3491 61.9753L33.2035 60.5198C33.1074 60.3976 32.9605 60.3263 32.805 60.3263H21.0875C20.6224 60.3263 20.2438 59.9478 20.2438 59.4827V48.0935C20.2438 47.8534 20.3415 47.6321 20.5188 47.4703C20.6961 47.3086 20.9251 47.2313 21.1645 47.2534L27.8437 47.8652C28.1225 47.8902 28.3694 47.6854 28.395 47.4064C28.4205 47.1275 28.2151 46.8807 27.9362 46.8552L21.3244 46.2495V19.0233C21.3244 18.1844 22.0069 17.5019 22.8458 17.5019H58.6531C59.4921 17.5019 60.1746 18.1844 60.1746 19.0233V33.5318C60.1746 33.8119 60.4016 34.039 60.6817 34.039C60.9619 34.039 61.1889 33.8119 61.1889 33.5318V19.0233C61.1889 17.6251 60.0513 16.4875 58.6531 16.4875H22.8458C21.4476 16.4875 20.31 17.6251 20.31 19.0233V46.4068C20.138 46.486 19.9773 46.5913 19.835 46.7211C19.4502 47.0722 19.2295 47.5725 19.2295 48.0935V59.4828C19.2295 60.5072 20.063 61.3407 21.0875 61.3407H32.5588L33.5521 62.6026C33.8036 62.9221 34.1809 63.1053 34.5876 63.1053C34.9942 63.1053 35.3715 62.9221 35.623 62.6026L36.6163 61.3407H38.6976C39.722 61.3407 40.5555 60.5072 40.5555 59.4828V55.3862H43.5209L44.5141 56.6485C44.7655 56.9676 45.1429 57.1506 45.5494 57.1506C45.9558 57.1506 46.3332 56.9676 46.585 56.6482L47.5778 55.3863H49.6594C50.4505 55.3863 51.126 54.8877 51.393 54.1889H58.6531C60.0513 54.1889 61.1889 53.0513 61.1889 51.6531V49.3412C61.936 49.1004 62.4785 48.3991 62.4785 47.573V37.797C62.4784 36.8303 61.7526 36.0348 60.79 35.9467ZM49.6593 54.3718H47.3314C47.1759 54.3718 47.029 54.4432 46.9328 54.5654L45.7879 56.0205C45.7086 56.1211 45.6042 56.1361 45.5492 56.1361C45.4941 56.1361 45.3898 56.1211 45.3107 56.0208L44.1655 54.5653C44.0694 54.443 43.9225 54.3717 43.7669 54.3717H32.0487C31.584 54.3717 31.2058 53.9932 31.2058 53.5278V42.1382C31.2058 41.8985 31.3034 41.6775 31.4805 41.5157C31.6579 41.3537 31.8874 41.2767 32.1262 41.2982L41.1525 42.1253V47.573C41.1525 48.5974 41.986 49.4309 43.0104 49.4309H50.5021V53.5279C50.5022 53.9933 50.124 54.3718 49.6593 54.3718ZM58.653 53.1744H51.5165V49.4309H54.4818L55.4752 50.6928C55.7266 51.0123 56.1039 51.1956 56.5106 51.1956C56.9171 51.1956 57.2945 51.0123 57.5459 50.6928L58.5392 49.4309H60.1745V51.653C60.1745 52.4919 59.4921 53.1744 58.653 53.1744ZM61.4641 47.5729C61.4641 48.038 61.0856 48.4165 60.6205 48.4165H58.293C58.1375 48.4165 57.9908 48.4878 57.8945 48.61L56.7489 50.0655C56.6697 50.1662 56.5655 50.1812 56.5106 50.1812C56.4555 50.1812 56.3514 50.1662 56.2721 50.0655L55.1265 48.61C55.0304 48.4878 54.8835 48.4165 54.728 48.4165H43.0105C42.5454 48.4165 42.1669 48.038 42.1669 47.5729V36.1837C42.1669 35.9437 42.2646 35.7224 42.4419 35.5605C42.5994 35.4168 42.798 35.3399 43.008 35.3399C43.0344 35.3399 43.0608 35.3411 43.0875 35.3436L60.6975 36.9567C61.1346 36.9968 61.4642 37.358 61.4642 37.7969V47.5729H61.4641Z" fill="#2626BC"/>
<path d="M45.0394 39.1676H48.3443C48.6244 39.1676 48.8515 38.9406 48.8515 38.6605C48.8515 38.3803 48.6244 38.1533 48.3443 38.1533H45.0394C44.7592 38.1533 44.5322 38.3803 44.5322 38.6605C44.5322 38.9406 44.7593 39.1676 45.0394 39.1676Z" fill="#02FFB3"/>
<path d="M45.0374 42.2248H51.9939C52.274 42.2248 52.5011 41.9978 52.5011 41.7176C52.5011 41.4375 52.274 41.2104 51.9939 41.2104H45.0374C44.7573 41.2104 44.5303 41.4375 44.5303 41.7176C44.5303 41.9978 44.7574 42.2248 45.0374 42.2248Z" fill="white"/>
<path d="M45.0374 44.2921H57.8769C58.157 44.2921 58.3841 44.0651 58.3841 43.785C58.3841 43.5048 58.157 43.2778 57.8769 43.2778H45.0374C44.7573 43.2778 44.5303 43.5048 44.5303 43.785C44.5303 44.0651 44.7574 44.2921 45.0374 44.2921Z" fill="white"/>
<path d="M45.0374 46.3593H57.8769C58.157 46.3593 58.3841 46.1323 58.3841 45.8521C58.3841 45.572 58.157 45.345 57.8769 45.345H45.0374C44.7573 45.345 44.5303 45.572 44.5303 45.8521C44.5303 46.1323 44.7574 46.3593 45.0374 46.3593Z" fill="white"/>
<path d="M58.1859 39.8776C58.466 39.8776 58.693 39.6505 58.693 39.3704C58.693 39.0903 58.466 38.8633 58.1859 38.8633C57.9058 38.8633 57.6787 39.0903 57.6787 39.3704C57.6787 39.6505 57.9058 39.8776 58.1859 39.8776Z" fill="#00D890"/>
<path d="M56.305 39.8776C56.5851 39.8776 56.8122 39.6505 56.8122 39.3704C56.8122 39.0903 56.5851 38.8633 56.305 38.8633C56.0249 38.8633 55.7979 39.0903 55.7979 39.3704C55.7979 39.6505 56.0249 39.8776 56.305 39.8776Z" fill="#00D890"/>
<path d="M54.4271 39.8776C54.7072 39.8776 54.9342 39.6505 54.9342 39.3704C54.9342 39.0903 54.7072 38.8633 54.4271 38.8633C54.147 38.8633 53.9199 39.0903 53.9199 39.3704C53.9199 39.6505 54.147 39.8776 54.4271 39.8776Z" fill="#00D890"/>
<path d="M27.9948 26.4299C25.9461 26.4299 24.2793 28.0967 24.2793 30.1454C24.2793 32.1941 25.9461 33.8608 27.9948 33.8608C28.8015 33.8608 29.5484 33.6016 30.1582 33.1632L30.509 33.514C30.627 33.632 30.7816 33.6909 30.9363 33.6909C31.0908 33.6909 31.2454 33.6319 31.3635 33.514C31.5994 33.2781 31.5994 32.8956 31.3635 32.6597L31.0126 32.3088C31.451 31.699 31.7104 30.9521 31.7104 30.1454C31.7103 28.0967 30.0436 26.4299 27.9948 26.4299ZM27.9948 32.6527C26.6123 32.6527 25.4876 31.5279 25.4876 30.1455C25.4876 28.763 26.6123 27.6383 27.9948 27.6383C29.3774 27.6383 30.502 28.7631 30.502 30.1455C30.502 30.6179 30.3682 31.0588 30.1401 31.4364L28.422 29.7182C28.1861 29.4824 27.8037 29.4824 27.5676 29.7182C27.3317 29.9542 27.3317 30.3367 27.5676 30.5726L29.2857 32.2908C28.908 32.5189 28.4673 32.6527 27.9948 32.6527Z" fill="#FF7EB8"/>
<path d="M35.3309 30.5337C34.9973 30.5337 34.7268 30.8042 34.7268 31.1379V31.6688L33.7686 30.7106C33.5958 30.5378 33.3359 30.4863 33.1102 30.5797C32.8845 30.6732 32.7373 30.8935 32.7373 31.1379V33.0869C32.7373 33.4205 33.0078 33.691 33.3414 33.691C33.675 33.691 33.9456 33.4205 33.9456 33.0869V32.5963L34.9038 33.5546C35.0193 33.6701 35.1739 33.7315 35.3311 33.7315C35.4089 33.7315 35.4874 33.7164 35.5622 33.6855C35.7879 33.592 35.935 33.3717 35.935 33.1273V31.1379C35.935 30.8041 35.6645 30.5337 35.3309 30.5337Z" fill="#FF7EB8"/>
<path d="M42.5181 33.05L40.2978 26.96C40.2859 26.8634 40.2506 26.7699 40.1932 26.6879C40.0802 26.5264 39.8954 26.4302 39.6982 26.4302H39.6818C39.4846 26.4302 39.2999 26.5264 39.1868 26.6879C39.1295 26.7699 39.0942 26.8635 39.0823 26.96L36.8619 33.05C36.7476 33.3634 36.9091 33.7101 37.2226 33.8245C37.5359 33.9389 37.8829 33.7774 37.9971 33.4638L38.4504 32.2205H40.9295L41.3828 33.4638C41.4723 33.709 41.7039 33.8613 41.9504 33.8613C42.0191 33.8613 42.089 33.8495 42.1573 33.8245C42.471 33.7101 42.6325 33.3634 42.5181 33.05ZM38.8911 31.0121L39.6901 28.8203L40.4892 31.0121H38.8911Z" fill="#FF7EB8"/>
<path d="M17.5752 45.883C17.4454 45.883 17.3156 45.8335 17.2165 45.7346L16.1515 44.6695C15.9534 44.4714 15.9534 44.1503 16.1515 43.9523L17.2165 42.8873C17.4146 42.6893 17.7357 42.6893 17.9338 42.8873L18.9988 43.9523C19.1969 44.1504 19.1969 44.4715 18.9988 44.6695L17.9338 45.7346C17.8348 45.8335 17.705 45.883 17.5752 45.883ZM17.2274 44.3109L17.5752 44.6587L17.923 44.3109L17.5752 43.963L17.2274 44.3109Z" fill="#01ECA5"/>
<path d="M46.3329 64.1704C46.2032 64.1704 46.0732 64.1209 45.9743 64.0219L44.9093 62.9569C44.7112 62.7588 44.7112 62.4376 44.9093 62.2397L45.9743 61.1746C46.1722 60.9766 46.4936 60.9766 46.6915 61.1746L47.7565 62.2397C47.9546 62.4377 47.9546 62.7589 47.7565 62.9569L46.6915 64.0219C46.5926 64.1209 46.4626 64.1704 46.3329 64.1704ZM45.9851 62.5982L46.3329 62.946L46.6807 62.5982L46.3329 62.2504L45.9851 62.5982Z" fill="#FF7EB8"/>
<path d="M63.5218 32.5073C63.392 32.5073 63.2621 32.4578 63.1632 32.3588C62.9651 32.1607 62.9651 31.8396 63.1632 31.6416L64.1775 30.6273C64.3754 30.4293 64.6968 30.4293 64.8947 30.6273C65.0928 30.8254 65.0928 31.1465 64.8947 31.3445L63.8803 32.3588C63.7814 32.4578 63.6515 32.5073 63.5218 32.5073Z" fill="#FF7EB8"/>
<path d="M50.014 61.1916C49.8842 61.1916 49.7543 61.1421 49.6554 61.0431C49.4573 60.845 49.4573 60.5239 49.6554 60.3259L50.6697 59.3116C50.8676 59.1136 51.1889 59.1136 51.3868 59.3116C51.5849 59.5097 51.5849 59.8308 51.3868 60.0288L50.3725 61.0431C50.2736 61.1421 50.1437 61.1916 50.014 61.1916Z" fill="#6583FE"/>
<path d="M18.268 18.009C18.1381 18.009 18.0084 17.9595 17.9093 17.8605C17.7112 17.6624 17.7112 17.3413 17.9093 17.1433L18.9236 16.129C19.1217 15.931 19.4428 15.931 19.6409 16.129C19.8389 16.3271 19.8389 16.6482 19.6409 16.8462L18.6265 17.8605C18.5275 17.9595 18.3977 18.009 18.268 18.009Z" fill="#6583FE"/>
<defs>
<linearGradient id="paint0_linear" x1="30.8874" y1="52.131" x2="63.5891" y2="19.4293" gradientUnits="userSpaceOnUse">
<stop offset="0.0485" stop-color="#FFDBED"/>
<stop offset="0.9993" stop-color="#D2DEFF"/>
</linearGradient>
</defs>
</svg>
