<svg width="37" height="37" viewBox="0 0 37 37" fill="none" xmlns="http://www.w3.org/2000/svg">
<g clip-path="url(#clip0)">
<path d="M35.1678 17.4026C34.8289 15.7417 33.8976 14.0325 32.2894 13.4964C30.9591 13.0529 29.3183 13.5723 28.1887 12.7414C25.4385 10.7182 26.6974 7.77121 21.9253 8.21439C20.8668 8.31269 19.6521 8.16229 18.9891 7.33099C18.3126 6.4826 18.4986 5.26373 18.2974 4.19744C17.8975 2.07773 15.8359 0.465044 13.6872 0.274638C7.10309 -0.308674 4.26795 1.90736 1.7227 7.02562C1.14867 8.17994 0.598197 9.5066 0.997079 10.7326C2.33688 14.8501 7.7577 12.9305 11.0346 13.2673C15.6126 13.7378 12.9787 17.8623 15.7862 18.6802C16.39 18.8561 17.0112 18.4728 17.6341 18.3876C19.3312 18.1555 20.8376 19.8772 20.9197 21.5881C21.0804 24.9341 18.8245 27.9508 17.3227 30.8362C16.1467 33.0953 16.4842 35.5996 19.1574 36.0676C27.3311 37.4985 36.7975 25.3898 35.1678 17.4026Z" fill="url(#paint0_linear)"/>
<path opacity="0.1" d="M27.5449 3.05249H20.17C19.7983 3.05249 19.4969 3.35385 19.4969 3.72559V5.00943C19.051 4.90171 18.5858 4.84321 18.1068 4.84321C14.8478 4.84321 12.2059 7.48513 12.2059 10.744V13.8137H10.2723V11.163C10.2723 10.7747 9.95754 10.4599 9.56921 10.4599H9.21765C8.82931 10.4599 8.51452 10.7747 8.51452 11.163V16.2333C8.51452 17.4912 8.75485 18.6963 9.19163 19.8035C8.51895 20.5145 8.10558 21.4735 8.10558 22.5296C8.10558 24.7215 9.88238 26.4983 12.0742 26.4983C13.163 26.4983 14.1492 26.0595 14.8662 25.3495C15.5488 25.5976 16.2676 25.7696 17.0128 25.8553V33.0675H12.9313C12.7372 33.0675 12.5798 33.2249 12.5798 33.4191V34.547C12.5798 34.7411 12.7372 34.8986 12.9313 34.8986H23.282C23.4762 34.8986 23.6336 34.7411 23.6336 34.547V33.4191C23.6336 33.2249 23.4762 33.0675 23.282 33.0675H19.2006V25.8556C23.9764 25.3109 27.6989 21.2454 27.6989 16.3261V11.163C27.6989 10.7746 27.3841 10.4598 26.9958 10.4598H26.6442C26.2559 10.4598 25.9411 10.7746 25.9411 11.163V13.8136H24.0075V10.744C24.0075 10.1545 23.92 9.58565 23.759 9.04846H27.5447C27.9165 9.04846 28.2178 8.7471 28.2178 8.37536V3.72559C28.2179 3.35385 27.9165 3.05249 27.5449 3.05249ZM12.206 14.5168V16.3262C12.206 17.1339 12.3687 17.9035 12.6625 18.6046C12.4705 18.5761 12.2743 18.561 12.0744 18.561C11.5827 18.561 11.1123 18.651 10.6778 18.8144C10.4151 18.0324 10.2724 17.1956 10.2724 16.3262V14.5168H12.206ZM25.9413 14.5168V16.2399C25.9413 20.563 22.4757 24.1355 18.1527 24.1604C17.3435 24.1651 16.5623 24.0463 15.8266 23.822C15.9662 23.4167 16.043 22.9823 16.043 22.5296C16.043 22.2909 16.0207 22.0575 15.9804 21.8305C16.6403 22.0857 17.3569 22.2271 18.1068 22.2271C21.3657 22.2271 24.0077 19.5851 24.0077 16.3262V14.5169H25.9413V14.5168Z" fill="#2626BC"/>
<path d="M17.0129 23.2994H19.2008V32.0287H17.0129V23.2994Z" fill="#6583FE"/>
<path d="M19.2008 23.2994V25.8251C18.8359 25.8884 18.463 25.92 18.0844 25.9186C17.7208 25.9172 17.3628 25.8855 17.0129 25.8244V23.2994H19.2008Z" fill="#4369FD"/>
<path d="M18.1068 20.5396C14.8479 20.5396 12.206 17.8977 12.206 14.6388V9.0566C12.206 5.79768 14.8479 3.15576 18.1068 3.15576C21.3658 3.15576 24.0077 5.79768 24.0077 9.0566V14.6388C24.0077 17.8977 21.3658 20.5396 18.1068 20.5396Z" fill="#8399FE"/>
<path d="M24.0074 9.04868H23.5841L22.9358 9.93111C22.7411 10.1969 22.3438 10.1969 22.149 9.93111L21.5008 9.04868H20.1697C19.7985 9.04868 19.4969 8.74775 19.4969 8.37579V3.72603C19.4969 3.58681 19.539 3.45743 19.6122 3.34985C20.6366 3.61915 21.5528 4.15704 22.2791 4.88407C23.3451 5.95001 24.0053 7.42236 24.0074 9.04868Z" fill="#6583FE"/>
<path d="M24.0076 9.0564V14.6385C24.0076 16.365 23.2661 17.9189 22.0839 18.9976C20.8016 17.9846 20.0515 16.4389 20.0515 14.8007V9.74553C20.0515 8.06316 20.8429 6.47853 22.1886 5.46779L22.5625 5.18689C23.4621 6.22323 24.0076 7.57583 24.0076 9.0564Z" fill="#6583FE"/>
<path d="M24.0075 9.05619V14.6383C24.0075 15.5545 23.7987 16.4221 23.4267 17.1963C22.692 16.4074 22.275 15.3639 22.275 14.2685V10.2072C22.275 9.00134 22.7806 7.85876 23.6567 7.05017C23.8838 7.67595 24.0075 8.35165 24.0075 9.05619Z" fill="#4369FD"/>
<path d="M24.0075 9.04845H23.5842L22.936 9.93088C22.7412 10.1967 22.3439 10.1967 22.1492 9.93088L21.5009 9.04845H20.1699C20.1459 9.04845 20.122 9.04705 20.0981 9.04494C20.2845 7.62955 21.0319 6.3365 22.1885 5.46814L22.5626 5.18689C23.4605 6.22119 24.0054 7.57119 24.0075 9.04845Z" fill="#4369FD"/>
<path d="M24.0075 9.04845H23.5842L22.9359 9.93087C22.7777 10.1467 22.4859 10.1875 22.2778 10.0525C22.3186 8.90431 22.8178 7.82431 23.6567 7.05017C23.8831 7.67384 24.0068 8.34673 24.0075 9.04845Z" fill="#2D58E0"/>
<path d="M16.8112 8.23368C16.8112 8.87458 16.2916 9.39412 15.6507 9.39412H12.2061V9.05683C12.2061 8.36073 12.3264 7.69312 12.548 7.07324H15.6507C16.2916 7.07324 16.8112 7.59278 16.8112 8.23368Z" fill="#B7C5FF"/>
<path d="M16.8112 12.2734C16.8112 12.9143 16.2916 13.4338 15.6507 13.4338H12.2061V11.1129H15.6507C16.2916 11.1129 16.8112 11.6325 16.8112 12.2734Z" fill="#B7C5FF"/>
<path d="M16.8112 16.3133C16.8112 16.9542 16.2917 17.4737 15.6508 17.4737H12.9307C12.5468 16.7741 12.3003 15.9885 12.2287 15.1528H15.6507C16.2917 15.1528 16.8112 15.6724 16.8112 16.3133Z" fill="#B7C5FF"/>
<path d="M25.9413 9.47559V14.5525C25.9413 18.8756 22.4757 22.4481 18.1527 22.473C13.8119 22.498 10.2724 18.9739 10.2724 14.6387V9.47559C10.2724 9.08725 9.95763 8.77246 9.5693 8.77246H9.21773C8.8294 8.77246 8.51461 9.08725 8.51461 9.47559V14.5458C8.51461 19.848 12.7774 24.216 18.0796 24.2309C23.3813 24.2456 27.6991 19.9369 27.6991 14.6387V9.47559C27.6991 9.08725 27.3843 8.77246 26.996 8.77246H26.6444C26.2561 8.77246 25.9413 9.08725 25.9413 9.47559Z" fill="#6583FE"/>
<path d="M16.0432 22.5297C16.0432 23.0282 15.951 23.5049 15.783 23.9443C13.199 23.294 11.0348 21.5826 9.75792 19.3072C10.2276 18.969 10.7732 18.7314 11.3653 18.6245C12.3876 20.3493 14.0533 21.6494 16.0291 22.1936C16.0382 22.304 16.0432 22.4165 16.0432 22.5297Z" fill="#4369FD"/>
<path d="M25.9413 11.0166H27.6991V14.5331H25.9413V11.0166Z" fill="#9FB0FE"/>
<path d="M8.5146 11.0165H10.2724V14.533H8.5146V11.0165Z" fill="#9FB0FE"/>
<path d="M23.2821 33.2113H12.9314C12.7373 33.2113 12.5799 33.0539 12.5799 32.8598V31.7318C12.5799 31.5377 12.7373 31.3802 12.9314 31.3802H23.2821C23.4763 31.3802 23.6337 31.5377 23.6337 31.7318V32.8598C23.6337 33.0539 23.4764 33.2113 23.2821 33.2113Z" fill="#9FB0FE"/>
<path d="M12.0743 24.8109C14.2661 24.8109 16.043 23.0341 16.043 20.8423C16.043 18.6505 14.2661 16.8737 12.0743 16.8737C9.8825 16.8737 8.10567 18.6505 8.10567 20.8423C8.10567 23.0341 9.8825 24.8109 12.0743 24.8109Z" fill="#FFDBED"/>
<path d="M14.8093 23.7187C14.097 24.3951 13.1345 24.8113 12.0742 24.8113C11.0138 24.8113 10.052 24.3958 9.33971 23.7194C9.37908 23.6455 9.43955 23.5837 9.51338 23.5415L11.511 22.408V21.7274H12.6374V22.408L14.6349 23.5415C14.7095 23.5837 14.7692 23.6455 14.8093 23.7187Z" fill="#FF7EB8"/>
<path d="M10.6794 19.7578L10.7291 20.7865C10.7637 21.5042 11.3558 22.0684 12.0744 22.0684C12.793 22.0684 13.385 21.5042 13.4197 20.7865L13.4693 19.7578C13.5078 18.961 12.8721 18.2939 12.0744 18.2939C11.2766 18.2939 10.641 18.961 10.6794 19.7578Z" fill="#FFA8CF"/>
<path d="M28.2178 2.03802V6.68786C28.2178 7.0596 27.9165 7.36089 27.5448 7.36089H23.584L22.9362 8.24303C22.7409 8.5086 22.344 8.5086 22.1492 8.24303L21.5009 7.36089H20.1699C19.7982 7.36089 19.4968 7.05953 19.4968 6.68786V2.03802C19.4968 1.66628 19.7982 1.36499 20.1699 1.36499H27.5448C27.9165 1.36492 28.2178 1.66628 28.2178 2.03802Z" fill="#02FFB3"/>
<path d="M27.5448 1.01355H20.17C19.605 1.01355 19.1454 1.47318 19.1454 2.03821V2.89012C18.8032 2.83296 18.4552 2.80399 18.1068 2.80399C16.436 2.80399 14.866 3.45438 13.6859 4.63521C12.5049 5.81603 11.8546 7.38639 11.8546 9.05688V12.1262H10.6242V9.47594C10.6242 8.89439 10.151 8.42125 9.56946 8.42125H9.2179C8.63635 8.42125 8.16321 8.89439 8.16321 9.47594V14.5462C8.16321 15.7486 8.37338 16.9239 8.78766 18.0429C8.14395 18.7975 7.75407 19.7749 7.75407 20.8422C7.75407 23.2244 9.69209 25.1624 12.0743 25.1624C13.177 25.1624 14.184 24.7466 14.9482 24.0642C15.5065 24.2533 16.079 24.3906 16.661 24.4764V31.0285H16.0826C15.8884 31.0285 15.731 31.186 15.731 31.3801C15.731 31.5742 15.8884 31.7317 16.0826 31.7317H23.2821V32.8596H12.9315V31.7317H14.0571C14.2513 31.7317 14.4087 31.5742 14.4087 31.3801C14.4087 31.186 14.2513 31.0285 14.0571 31.0285H12.9315C12.5438 31.0285 12.2283 31.344 12.2283 31.7317V32.8596C12.2283 33.2473 12.5438 33.5627 12.9315 33.5627H23.2822C23.6699 33.5627 23.9854 33.2473 23.9854 32.8596V31.7317C23.9854 31.344 23.6699 31.0285 23.2822 31.0285H19.5525V24.4783C21.6518 24.1732 23.592 23.2056 25.1249 21.6768C27.0115 19.7956 28.0504 17.2962 28.0504 14.6391V9.47601C28.0504 8.89445 27.5773 8.42132 26.9957 8.42132H26.6441C26.0626 8.42132 25.5895 8.89445 25.5895 9.47601V12.1263H24.359V9.55258C24.359 9.35845 24.2016 9.20102 24.0074 9.20102C23.8132 9.20102 23.6559 9.35845 23.6559 9.55258V14.639C23.6559 16.1212 23.0787 17.5147 22.0305 18.5628C20.9832 19.6109 19.5897 20.188 18.1068 20.188C17.4802 20.188 16.8686 20.0841 16.2854 19.8809C15.9087 18.2302 14.5848 16.9364 12.9175 16.6052C12.6796 15.9776 12.5577 15.3174 12.5577 14.639V9.05688C12.5577 7.5742 13.1349 6.18046 14.1832 5.13232C15.2305 4.08431 16.6239 3.50711 18.1068 3.50711C18.4558 3.50711 18.8042 3.54016 19.1454 3.60464V6.68805C19.1454 7.25301 19.605 7.71264 20.17 7.71264H21.323L21.8657 8.45113C22.0254 8.66889 22.2719 8.79384 22.542 8.79398H22.5425C22.8127 8.79398 23.0594 8.66917 23.2196 8.45128L23.762 7.71257H27.5449C28.1098 7.71257 28.5694 7.25294 28.5694 6.68798V2.03821C28.5694 1.47318 28.1098 1.01355 27.5448 1.01355ZM8.86634 9.47594C8.86634 9.28209 9.02405 9.12438 9.2179 9.12438H9.56946C9.76332 9.12438 9.92103 9.28209 9.92103 9.47594V14.639C9.92103 15.4195 10.0306 16.1881 10.2471 16.9287C9.92138 17.0814 9.61749 17.2731 9.34207 17.4986C9.02658 16.5486 8.86634 15.5579 8.86634 14.5462V9.47594ZM18.8494 31.0285H17.3643V24.5544C17.6012 24.5721 17.8393 24.5819 18.0785 24.5826H18.1068C18.3559 24.5826 18.6034 24.5734 18.8494 24.5553V31.0285ZM26.6441 9.12438H26.9957C27.1896 9.12438 27.3473 9.28209 27.3473 9.47594V14.639C27.3473 17.1079 26.3817 19.4305 24.6284 21.1789C22.8814 22.921 20.5663 23.8795 18.1069 23.8795C18.0982 23.8795 18.0892 23.8795 18.0805 23.8795C17.1932 23.8767 16.3208 23.7474 15.4801 23.4955C15.7032 23.2097 15.8914 22.8957 16.0378 22.5591C16.7257 22.7395 17.4354 22.8286 18.1546 22.8248C22.6419 22.7985 26.2926 19.0876 26.2926 14.5525V9.47594C26.2926 9.28209 26.4503 9.12438 26.6441 9.12438ZM18.1068 20.8912C19.7776 20.8912 21.3477 20.2408 22.5277 19.06C23.7087 17.8791 24.359 16.309 24.359 14.639V12.8294H25.5895V14.5525C25.5895 18.7021 22.2524 22.0977 18.1504 22.1216C17.5092 22.1266 16.878 22.0478 16.2651 21.8912C16.3493 21.5551 16.3946 21.2039 16.3946 20.8422C16.3946 20.7785 16.3924 20.7153 16.3897 20.6523C16.9449 20.8108 17.5203 20.8912 18.1068 20.8912ZM15.6914 20.8422C15.6914 22.8366 14.0688 24.4593 12.0743 24.4593C10.0799 24.4593 8.45726 22.8366 8.45726 20.8422C8.45726 18.8477 10.0799 17.2251 12.0743 17.2251C14.0688 17.2251 15.6914 18.8477 15.6914 20.8422ZM12.0743 16.522C11.6705 16.522 11.2798 16.579 10.9087 16.6831C10.7203 16.0215 10.6242 15.3356 10.6242 14.6391V12.8295H11.8546V14.6391C11.8546 15.2849 11.9528 15.9165 12.1448 16.5239C12.1212 16.5234 12.098 16.522 12.0743 16.522ZM27.8663 6.68805C27.8663 6.86531 27.7221 7.00952 27.5449 7.00952H23.5841C23.4721 7.00952 23.367 7.06281 23.3007 7.15303L22.653 8.03503C22.6172 8.08361 22.5686 8.09092 22.5426 8.09092C22.5425 8.09092 22.5425 8.09092 22.5425 8.09092C22.5167 8.09092 22.4682 8.08368 22.4326 8.0351L21.7843 7.15296C21.7181 7.06281 21.6129 7.00959 21.501 7.00959H20.1701C19.9928 7.00959 19.8486 6.86538 19.8486 6.68812V2.03821C19.8486 1.86096 19.9928 1.71667 20.1701 1.71667H27.5449C27.7222 1.71667 27.8664 1.86089 27.8664 2.03821V6.68805H27.8663Z" fill="#2626BC"/>
<path d="M26.3482 3.89465H23.2135C23.0193 3.89465 22.8619 3.73729 22.8619 3.54309C22.8619 3.34889 23.0193 3.19153 23.2135 3.19153H26.3482C26.5424 3.19153 26.6998 3.34889 26.6998 3.54309C26.6998 3.73729 26.5424 3.89465 26.3482 3.89465Z" fill="white"/>
<path d="M21.6666 3.89526C21.8608 3.89526 22.0182 3.73786 22.0182 3.5437C22.0182 3.34954 21.8608 3.19214 21.6666 3.19214C21.4724 3.19214 21.315 3.34954 21.315 3.5437C21.315 3.73786 21.4724 3.89526 21.6666 3.89526Z" fill="#FF5BA8"/>
<path d="M26.3482 5.32739H21.6666C21.4724 5.32739 21.315 5.17003 21.315 4.97583C21.315 4.78163 21.4724 4.62427 21.6666 4.62427H26.3482C26.5424 4.62427 26.6998 4.78163 26.6998 4.97583C26.6998 5.17003 26.5424 5.32739 26.3482 5.32739Z" fill="white"/>
<path d="M12.9005 29.3624C12.8106 29.3624 12.7205 29.328 12.6519 29.2594L11.9137 28.5211C11.7763 28.3838 11.7763 28.1612 11.9137 28.024L12.6519 27.2857C12.7891 27.1484 13.0119 27.1484 13.149 27.2857L13.8873 28.024C14.0246 28.1613 14.0246 28.3839 13.8873 28.5211L13.149 29.2594C13.0805 29.328 12.9904 29.3624 12.9005 29.3624ZM12.6594 28.2725L12.9005 28.5136L13.1416 28.2725L12.9005 28.0314L12.6594 28.2725Z" fill="#01ECA5"/>
<path d="M30.7736 11.22C30.6837 11.22 30.5936 11.1857 30.5251 11.1171L29.7868 10.3788C29.6495 10.2415 29.6495 10.0189 29.7868 9.88162L30.5251 9.14334C30.6623 9.00609 30.885 9.00609 31.0222 9.14334L31.7605 9.88162C31.8978 10.0189 31.8978 10.2416 31.7605 10.3788L31.0222 11.1171C30.9536 11.1857 30.8636 11.22 30.7736 11.22ZM30.5326 10.1302L30.7737 10.3713L31.0148 10.1302L30.7737 9.88908L30.5326 10.1302Z" fill="#6583FE"/>
<path d="M9.08893 5.67937C8.999 5.67937 8.90893 5.64506 8.84037 5.57644C8.70305 5.43912 8.70305 5.21651 8.84037 5.07926L9.5435 4.37613C9.68068 4.23888 9.90343 4.23888 10.0406 4.37613C10.1779 4.51345 10.1779 4.73606 10.0406 4.87331L9.33748 5.57644C9.26893 5.64499 9.17886 5.67937 9.08893 5.67937Z" fill="#FF7EB8"/>
<path d="M23.9885 27.0889C23.8985 27.0889 23.8085 27.0546 23.7399 26.986C23.6026 26.8487 23.6026 26.6261 23.7399 26.4888L24.443 25.7857C24.5802 25.6484 24.803 25.6484 24.9402 25.7857C25.0775 25.923 25.0775 26.1456 24.9402 26.2829L24.237 26.986C24.1685 27.0546 24.0785 27.0889 23.9885 27.0889Z" fill="#FF7EB8"/>
<path d="M9.44049 31.8149C9.35056 31.8149 9.26049 31.7806 9.19193 31.7119C9.05461 31.5746 9.05461 31.352 9.19193 31.2148L9.89506 30.5116C10.0322 30.3744 10.255 30.3744 10.3922 30.5116C10.5295 30.6489 10.5295 30.8716 10.3922 31.0088L9.68904 31.7119C9.62049 31.7805 9.53042 31.8149 9.44049 31.8149Z" fill="#01ECA5"/>
</g>
<defs>
<linearGradient id="paint0_linear" x1="8.24988" y1="26.052" x2="26.7994" y2="7.50248" gradientUnits="userSpaceOnUse">
<stop offset="0.0485" stop-color="#FFDBED"/>
<stop offset="0.9993" stop-color="#D2DEFF"/>
</linearGradient>
<clipPath id="clip0">
<rect width="36" height="36" fill="white" transform="translate(0.106827 0.183594)"/>
</clipPath>
</defs>
</svg>
