<svg width="80" height="80" viewBox="0 0 80 80" fill="none" xmlns="http://www.w3.org/2000/svg">
<rect x="0.598633" y="0.666504" width="79.3333" height="79.3333" rx="16.6667" fill="#F8F9FC"/>
<path d="M61.5906 15.5224C55.5621 12.0612 43.3015 14.8988 38.6825 20.0359C34.3418 24.8635 37.5981 32.7787 34.1619 35.0468C31.2333 36.9799 24.4184 32.3325 23.2274 39.6869C22.372 44.969 20.7636 45.6038 18.9934 45.4124C16.647 45.1586 14.7941 47.3993 15.4807 49.6573C17.0774 54.9085 20.4471 60.0391 24.7397 63.5439C32.1567 69.5997 39.6837 63.6158 39.6989 54.8537C39.7185 43.5349 46.5178 49.1626 52.193 43.6135C57.7527 38.1774 49.186 37.9781 49.6288 33.0857C50.078 28.1216 56.1725 27.4007 60.0035 26.0421C65.1344 24.2226 66.5634 18.3774 61.5906 15.5224Z" fill="url(#paint0_linear)"/>
<g opacity="0.1">
<path opacity="0.1" d="M35.6746 27.0752C35.9077 27.3083 36.2856 27.3083 36.5187 27.0752L37.9127 25.6813V31.4008C37.9127 31.7305 38.1799 31.9977 38.5096 31.9977H41.4942C41.8238 31.9977 42.0911 31.7305 42.0911 31.4008V25.6813L43.485 27.0752C43.7181 27.3083 44.096 27.3083 44.3291 27.0752L46.0174 25.387C46.2505 25.1539 46.2505 24.7759 46.0174 24.5428L41.2681 19.7935C40.5688 19.0942 39.435 19.0942 38.7357 19.7935L33.9863 24.5428C33.7532 24.7759 33.7532 25.1539 33.9863 25.387L35.6746 27.0752Z" fill="#2626BC"/>
<path opacity="0.1" d="M44.3291 57.3959C44.096 57.1628 43.7181 57.1628 43.485 57.3959L42.0911 58.7898V53.0703C42.0911 52.7406 41.8238 52.4734 41.4942 52.4734H38.5096C38.1799 52.4734 37.9127 52.7406 37.9127 53.0703V58.7898L36.5187 57.3959C36.2856 57.1628 35.9077 57.1628 35.6746 57.3959L33.9863 59.0841C33.7532 59.3172 33.7532 59.6952 33.9863 59.9283L38.7357 64.6776C39.435 65.3769 40.5688 65.3769 41.2681 64.6776L46.0174 59.9283C46.2505 59.6952 46.2505 59.3172 46.0174 59.0841L44.3291 57.3959Z" fill="#2626BC"/>
<path opacity="0.1" d="M48.2586 29.0526H50.2299L46.1856 33.0969C45.9525 33.33 45.9525 33.7079 46.1856 33.941L48.2959 36.0514C48.529 36.2845 48.907 36.2845 49.1401 36.0514L53.1844 32.0071V33.9784C53.1844 34.3081 53.4516 34.5753 53.7813 34.5753H56.1689C56.4986 34.5753 56.7658 34.3081 56.7658 33.9784V27.2618C56.7658 26.2729 55.9641 25.4712 54.9752 25.4712H48.2586C47.9289 25.4712 47.6617 25.7384 47.6617 26.0681V28.4557C47.6617 28.7854 47.9289 29.0526 48.2586 29.0526Z" fill="#2626BC"/>
<path opacity="0.1" d="M31.7445 55.4185H29.7732L33.8175 51.3742C34.0506 51.1411 34.0506 50.7632 33.8175 50.5301L31.7072 48.4197C31.4741 48.1866 31.0961 48.1866 30.863 48.4197L26.8187 52.464V50.4927C26.8187 50.163 26.5515 49.8958 26.2218 49.8958H23.8342C23.5045 49.8958 23.2373 50.163 23.2373 50.4927V57.2093C23.2373 58.1983 24.039 59 25.0279 58.9999H31.7445C32.0742 58.9999 32.3415 58.7327 32.3415 58.403V56.0155C32.3415 55.6858 32.0742 55.4185 31.7445 55.4185Z" fill="#2626BC"/>
<path opacity="0.1" d="M62.4435 40.9693L57.6941 36.22C57.461 35.9869 57.0831 35.9869 56.85 36.22L55.1618 37.9083C54.9287 38.1414 54.9287 38.5193 55.1618 38.7524L56.5557 40.1463H50.8362C50.5065 40.1463 50.2393 40.4135 50.2393 40.7432V43.7278C50.2393 44.0575 50.5065 44.3247 50.8362 44.3247H56.5557L55.1618 45.7186C54.9287 45.9517 54.9287 46.3297 55.1618 46.5628L56.85 48.251C57.0831 48.4841 57.461 48.4841 57.6941 48.251L62.4435 43.5017C63.1428 42.8024 63.1428 41.6686 62.4435 40.9693Z" fill="#2626BC"/>
<path opacity="0.1" d="M24.8413 45.7186L23.4474 44.3247H29.1669C29.4966 44.3247 29.7638 44.0575 29.7638 43.7278V40.7432C29.7638 40.4135 29.4966 40.1463 29.1669 40.1463H23.4474L24.8413 38.7524C25.0744 38.5193 25.0744 38.1414 24.8413 37.9083L23.1531 36.22C22.92 35.9869 22.542 35.9869 22.3089 36.22L17.5596 40.9693C16.8603 41.6686 16.8603 42.8024 17.5596 43.5017L22.3089 48.251C22.542 48.4841 22.92 48.4841 23.1531 48.251L24.8413 46.5628C25.0744 46.3298 25.0744 45.9518 24.8413 45.7186Z" fill="#2626BC"/>
<path opacity="0.1" d="M56.1689 49.8958H53.7813C53.4516 49.8958 53.1844 50.163 53.1844 50.4927V52.464L49.1401 48.4197C48.907 48.1866 48.529 48.1866 48.2959 48.4197L46.1856 50.5301C45.9525 50.7632 45.9525 51.1411 46.1856 51.3742L50.2299 55.4185H48.2586C47.9289 55.4185 47.6617 55.6858 47.6617 56.0155V58.403C47.6617 58.7327 47.9289 58.9999 48.2586 58.9999H54.9752C55.9641 58.9999 56.7658 58.1983 56.7658 57.2093V50.4927C56.7658 50.163 56.4986 49.8958 56.1689 49.8958Z" fill="#2626BC"/>
<path opacity="0.1" d="M23.8342 34.5753H26.2218C26.5515 34.5753 26.8187 34.3081 26.8187 33.9784V32.0071L30.863 36.0514C31.0961 36.2845 31.4741 36.2845 31.7072 36.0514L33.8175 33.941C34.0506 33.7079 34.0506 33.33 33.8175 33.0969L29.7732 29.0526H31.7445C32.0742 29.0526 32.3415 28.7854 32.3415 28.4557V26.0681C32.3415 25.7384 32.0742 25.4712 31.7445 25.4712H25.0279C24.039 25.4712 23.2372 26.2729 23.2373 27.2618V33.9784C23.2373 34.3081 23.5045 34.5753 23.8342 34.5753Z" fill="#2626BC"/>
<path opacity="0.1" d="M40.002 49.0002C43.7381 49.0002 46.7668 45.9715 46.7668 42.2354C46.7668 38.4994 43.7381 35.4707 40.002 35.4707C36.266 35.4707 33.2373 38.4994 33.2373 42.2354C33.2373 45.9715 36.266 49.0002 40.002 49.0002Z" fill="#2626BC"/>
</g>
<path d="M38.7357 17.356L33.9863 22.1053C33.7532 22.3384 33.7532 22.7164 33.9863 22.9495L35.6746 24.6377C35.9077 24.8708 36.2856 24.8708 36.5187 24.6377L37.9127 23.2438V28.9633C37.9127 29.293 38.1799 29.5602 38.5096 29.5602H41.4942C41.8238 29.5602 42.0911 29.293 42.0911 28.9633V23.2439L43.485 24.6378C43.7181 24.8709 44.096 24.8709 44.3291 24.6378L46.0174 22.9496C46.2505 22.7165 46.2505 22.3385 46.0174 22.1054L41.2681 17.3561C40.5689 16.6567 39.435 16.6567 38.7357 17.356Z" fill="#02FFB3"/>
<path d="M41.2681 62.2403L46.0174 57.491C46.2505 57.2579 46.2505 56.88 46.0174 56.6469L44.3291 54.9586C44.096 54.7255 43.7181 54.7255 43.485 54.9586L42.0911 56.3525V50.633C42.0911 50.3034 41.8238 50.0361 41.4942 50.0361H38.5096C38.1799 50.0361 37.9127 50.3034 37.9127 50.633V56.3525L36.5187 54.9586C36.2856 54.7255 35.9077 54.7255 35.6746 54.9586L33.9863 56.6469C33.7532 56.88 33.7532 57.2579 33.9863 57.491L38.7357 62.2403C39.435 62.9396 40.5688 62.9396 41.2681 62.2403Z" fill="#02FFB3"/>
<path d="M54.9752 23.0339H48.2586C47.9289 23.0339 47.6617 23.3012 47.6617 23.6309V26.0184C47.6617 26.3481 47.9289 26.6153 48.2586 26.6153H50.2299L46.1856 30.6597C45.9525 30.8928 45.9525 31.2707 46.1856 31.5038L48.2959 33.6142C48.529 33.8473 48.907 33.8473 49.1401 33.6142L53.1844 29.5698V31.5412C53.1844 31.8709 53.4516 32.1381 53.7813 32.1381H56.1689C56.4986 32.1381 56.7658 31.8709 56.7658 31.5412V24.8246C56.7658 23.8356 55.9641 23.0339 54.9752 23.0339Z" fill="#8399FE"/>
<path d="M25.0279 56.5624H31.7445C32.0742 56.5624 32.3415 56.2952 32.3415 55.9655V53.578C32.3415 53.2483 32.0742 52.981 31.7445 52.981H29.7732L33.8175 48.9367C34.0506 48.7036 34.0506 48.3257 33.8175 48.0926L31.7072 45.9822C31.4741 45.7491 31.0961 45.7491 30.863 45.9822L26.8187 50.0265V48.0552C26.8187 47.7255 26.5515 47.4583 26.2218 47.4583H23.8342C23.5045 47.4583 23.2373 47.7255 23.2373 48.0552V54.7718C23.2373 55.7608 24.039 56.5624 25.0279 56.5624Z" fill="#8399FE"/>
<path d="M62.4435 38.5318L57.6941 33.7825C57.461 33.5494 57.0831 33.5494 56.85 33.7825L55.1618 35.4708C54.9287 35.7039 54.9287 36.0818 55.1618 36.3149L56.5557 37.7088H50.8362C50.5065 37.7088 50.2393 37.976 50.2393 38.3057V41.2903C50.2393 41.62 50.5065 41.8872 50.8362 41.8872H56.5557L55.1618 43.2811C54.9287 43.5142 54.9287 43.8922 55.1618 44.1253L56.85 45.8135C57.0831 46.0466 57.461 46.0466 57.6941 45.8135L62.4435 41.0642C63.1428 40.365 63.1428 39.2311 62.4435 38.5318Z" fill="#FF7EB8"/>
<path d="M17.5596 41.0652L22.3089 45.8145C22.542 46.0476 22.92 46.0476 23.1531 45.8145L24.8413 44.1262C25.0744 43.8931 25.0744 43.5152 24.8413 43.2821L23.4474 41.8882H29.1669C29.4966 41.8882 29.7638 41.621 29.7638 41.2913V38.3067C29.7638 37.977 29.4966 37.7098 29.1669 37.7098H23.4474L24.8413 36.3159C25.0744 36.0828 25.0744 35.7048 24.8413 35.4717L23.1531 33.7835C22.92 33.5504 22.542 33.5504 22.3089 33.7835L17.5596 38.5328C16.8603 39.2321 16.8603 40.3659 17.5596 41.0652Z" fill="#FF7EB8"/>
<path d="M56.7658 54.7718V48.0552C56.7658 47.7255 56.4986 47.4583 56.1689 47.4583H53.7813C53.4516 47.4583 53.1844 47.7255 53.1844 48.0552V50.0265L49.1401 45.9822C48.907 45.7491 48.529 45.7491 48.2959 45.9822L46.1856 48.0926C45.9525 48.3257 45.9525 48.7036 46.1856 48.9367L50.2299 52.981H48.2586C47.9289 52.981 47.6617 53.2483 47.6617 53.578V55.9655C47.6617 56.2952 47.9289 56.5624 48.2586 56.5624H54.9752C55.9641 56.5624 56.7658 55.7608 56.7658 54.7718Z" fill="#FFDBED"/>
<path d="M23.2373 24.8246V31.5412C23.2373 31.8709 23.5045 32.1381 23.8342 32.1381H26.2218C26.5515 32.1381 26.8187 31.8709 26.8187 31.5412V29.5698L30.863 33.6142C31.0961 33.8473 31.4741 33.8473 31.7072 33.6142L33.8175 31.5038C34.0506 31.2707 34.0506 30.8928 33.8175 30.6597L29.7732 26.6153H31.7445C32.0742 26.6153 32.3415 26.3481 32.3415 26.0184V23.6309C32.3415 23.3012 32.0742 23.0339 31.7445 23.0339H25.0279C24.039 23.0339 23.2373 23.8356 23.2373 24.8246Z" fill="#FFDBED"/>
<path d="M40.002 46.5627C43.7381 46.5627 46.7668 43.534 46.7668 39.7979C46.7668 36.0619 43.7381 33.0332 40.002 33.0332C36.266 33.0332 33.2373 36.0619 33.2373 39.7979C33.2373 43.534 36.266 46.5627 40.002 46.5627Z" fill="#FFDBED"/>
<path d="M44.665 44.7006C43.451 45.8536 41.8102 46.563 40.0029 46.563C38.1956 46.563 36.5559 45.8547 35.3418 44.7017C35.4089 44.5759 35.512 44.4704 35.6379 44.3985L39.0428 42.4665V41.3064H40.9629V42.4665L44.3678 44.3985C44.4948 44.4704 44.5967 44.576 44.665 44.7006Z" fill="#FF7EB8"/>
<path d="M37.6249 37.9493L37.7095 39.7028C37.7685 40.9263 38.7777 41.8879 40.0026 41.8879C41.2275 41.8879 42.2367 40.9263 42.2957 39.7028L42.3803 37.9493C42.4458 36.5912 41.3624 35.4541 40.0026 35.4541C38.6428 35.4542 37.5594 36.5912 37.6249 37.9493Z" fill="#FFA8CF"/>
<path d="M35.3157 24.9968C35.5244 25.2055 35.8018 25.3204 36.0969 25.3204C36.392 25.3204 36.6695 25.2055 36.8781 24.9969L37.405 24.4699V28.9634C37.405 29.5726 37.9006 30.0681 38.5098 30.0681H41.4944C42.1036 30.0681 42.5991 29.5726 42.5991 28.9634V28.4057C42.5991 28.1252 42.3717 27.8978 42.0913 27.8978C41.8108 27.8978 41.5834 28.1252 41.5834 28.4057V28.9634C41.5834 29.0124 41.5434 29.0525 41.4944 29.0525H38.5098C38.4607 29.0525 38.4207 29.0124 38.4207 28.9634V23.2438C38.4207 23.0384 38.297 22.8532 38.1073 22.7745C37.9174 22.696 37.699 22.7394 37.5538 22.8846L36.1598 24.2787C36.1383 24.3002 36.1137 24.3048 36.0969 24.3048C36.0801 24.3048 36.0555 24.3003 36.034 24.2787L34.3456 22.5903C34.3241 22.5688 34.3195 22.5442 34.3195 22.5273C34.3195 22.5105 34.324 22.486 34.3456 22.4644L39.0949 17.715C39.5949 17.2148 40.4089 17.2147 40.9091 17.715L45.6584 22.4645C45.68 22.486 45.6845 22.5106 45.6845 22.5273C45.6845 22.5442 45.6801 22.5688 45.6584 22.5903L43.9701 24.2787C43.9485 24.3002 43.924 24.3048 43.9071 24.3048C43.8902 24.3048 43.8658 24.3003 43.8441 24.2787L42.4502 22.8847C42.305 22.7395 42.0865 22.6961 41.8968 22.7746C41.707 22.8533 41.5833 23.0384 41.5833 23.2439V25.4796C41.5833 25.76 41.8107 25.9874 42.0912 25.9874C42.3716 25.9874 42.599 25.76 42.599 25.4796V24.47L43.1259 24.997C43.3347 25.2057 43.6121 25.3207 43.9071 25.3207C44.2023 25.3207 44.4796 25.2057 44.6883 24.9971L46.3765 23.3088C46.5853 23.1001 46.7002 22.8227 46.7002 22.5275C46.7002 22.2325 46.5852 21.955 46.3766 21.7464L41.6273 16.9971C40.7311 16.1009 39.2729 16.1009 38.3766 16.9971L33.6274 21.7464C33.4187 21.9551 33.3037 22.2325 33.3037 22.5275C33.3037 22.8227 33.4187 23.1001 33.6273 23.3087L35.3157 24.9968Z" fill="#2626BC"/>
<path d="M44.6884 54.5992C44.4796 54.3905 44.2023 54.2755 43.9071 54.2755C43.6121 54.2755 43.3346 54.3905 43.1259 54.5991L42.599 55.1261V50.6326C42.599 50.0234 42.1035 49.5278 41.4943 49.5278H38.5097C37.9005 49.5278 37.4049 50.0234 37.4049 50.6326V55.1261L36.878 54.5991C36.4471 54.1684 35.7463 54.1685 35.3157 54.5991L33.6274 56.2874C33.4187 56.4961 33.3037 56.7735 33.3037 57.0686C33.3037 57.3637 33.4187 57.6412 33.6273 57.8498L38.3766 62.5991C38.8247 63.0472 39.4133 63.2713 40.0019 63.2713C40.5905 63.2713 41.1791 63.0472 41.6272 62.5991L46.3764 57.8498C46.5851 57.6411 46.7001 57.3637 46.7001 57.0686C46.7001 56.7735 46.5851 56.4961 46.3765 56.2875L44.6884 54.5992ZM45.6583 57.1316L40.909 61.8809C40.4089 62.3812 39.5949 62.3812 39.0948 61.8809L34.3455 57.1315C34.324 57.11 34.3194 57.0854 34.3194 57.0686C34.3194 57.0518 34.3239 57.0272 34.3455 57.0057L36.0338 55.3174C36.0511 55.3 36.074 55.2914 36.0967 55.2914C36.1196 55.2914 36.1423 55.3 36.1597 55.3174L37.5536 56.7113C37.6989 56.8567 37.9172 56.8999 38.1071 56.8214C38.2968 56.7428 38.4205 56.5577 38.4205 56.3522V50.6327C38.4205 50.5836 38.4605 50.5436 38.5096 50.5436H41.4942C41.5432 50.5436 41.5832 50.5836 41.5832 50.6327V56.3522C41.5832 56.5576 41.7069 56.7428 41.8967 56.8214C42.0865 56.8999 42.3049 56.8567 42.4501 56.7113L43.8441 55.3173C43.8657 55.2958 43.8902 55.2912 43.907 55.2912C43.9239 55.2912 43.9484 55.2957 43.97 55.3173L45.6583 57.0057C45.6799 57.0272 45.6844 57.0518 45.6844 57.0686C45.6844 57.0855 45.68 57.11 45.6583 57.1316Z" fill="#2626BC"/>
<path d="M48.2606 27.1229H49.0059L45.8286 30.3003C45.6199 30.509 45.5049 30.7864 45.5049 31.0815C45.5049 31.3766 45.6199 31.654 45.8285 31.8626L47.9388 33.9729C48.1475 34.1816 48.4249 34.2966 48.72 34.2966C49.0151 34.2966 49.2926 34.1816 49.5012 33.973L52.6785 30.7956V31.541C52.6785 32.1502 53.1741 32.6457 53.7833 32.6457H56.1708C56.78 32.6457 57.2756 32.1502 57.2756 31.541V24.8244C57.2756 23.5569 56.2445 22.5259 54.9771 22.5259H48.2605C47.6513 22.5259 47.1558 23.0214 47.1558 23.6306V26.0182C47.1559 26.6274 47.6514 27.1229 48.2606 27.1229ZM48.1716 23.6306C48.1716 23.5816 48.2116 23.5416 48.2606 23.5416H54.9772C55.6845 23.5416 56.26 24.117 56.26 24.8244V31.541C56.26 31.59 56.22 31.63 56.1709 31.63H53.7834C53.7343 31.63 53.6943 31.59 53.6943 31.541V29.5696C53.6943 29.3642 53.5706 29.179 53.3809 29.1004C53.1911 29.0219 52.9726 29.0652 52.8274 29.2105L48.7831 33.2548C48.7616 33.2763 48.737 33.2809 48.7202 33.2809C48.7034 33.2809 48.6788 33.2764 48.6572 33.2548L46.5467 31.1444C46.5251 31.1229 46.5206 31.0983 46.5206 31.0815C46.5206 31.0646 46.525 31.0401 46.5467 31.0185L50.5909 26.9742C50.7361 26.8289 50.7795 26.6104 50.701 26.4207C50.6224 26.231 50.4372 26.1073 50.2318 26.1073H48.2604C48.2114 26.1073 48.1713 26.0673 48.1713 26.0182V23.6306H48.1716Z" fill="#2626BC"/>
<path d="M31.7465 52.4731H31.0012L34.1786 49.2957C34.3873 49.087 34.5023 48.8096 34.5023 48.5146C34.5023 48.2194 34.3873 47.942 34.1787 47.7334L32.0683 45.623C31.6375 45.1924 30.9367 45.1924 30.5059 45.623L27.3285 48.8004V48.0552C27.3285 47.446 26.833 46.9504 26.2238 46.9504H23.8362C23.227 46.9504 22.7314 47.446 22.7314 48.0552V54.7718C22.7314 56.0392 23.7626 57.0703 25.0299 57.0703H26.3529C26.6333 57.0703 26.8607 56.8428 26.8607 56.5624C26.8607 56.282 26.6333 56.0546 26.3529 56.0546H25.0299C24.3226 56.0546 23.7471 55.4791 23.7471 54.7718V48.0552C23.7471 48.0061 23.7871 47.9661 23.8362 47.9661H26.2238C26.2728 47.9661 26.3128 48.0061 26.3128 48.0552V50.0265C26.3128 50.2319 26.4365 50.4171 26.6263 50.4958C26.8161 50.5743 27.0345 50.5309 27.1797 50.3857L31.224 46.3414C31.2588 46.3066 31.3153 46.3067 31.35 46.3414L33.4604 48.4519C33.4819 48.4734 33.4865 48.498 33.4865 48.5149C33.4865 48.5317 33.482 48.5562 33.4604 48.5778L29.4161 52.6222C29.2709 52.7674 29.2275 52.9859 29.306 53.1756C29.3847 53.3654 29.5698 53.4891 29.7753 53.4891H31.7466C31.7957 53.4891 31.8357 53.5291 31.8357 53.5781V55.9657C31.8357 56.0148 31.7957 56.0548 31.7466 56.0548H29.279C28.9986 56.0548 28.7712 56.2822 28.7712 56.5626C28.7712 56.8431 28.9986 57.0705 29.279 57.0705H31.7465C32.3557 57.0705 32.8513 56.5749 32.8513 55.9657V53.5781C32.8513 52.9686 32.3557 52.4731 31.7465 52.4731Z" fill="#2626BC"/>
<path d="M62.8037 38.1728L58.0544 33.4236C57.8457 33.2148 57.5683 33.0999 57.2732 33.0999C56.9781 33.0999 56.7007 33.2148 56.4921 33.4234L54.8038 35.1117C54.5951 35.3204 54.4801 35.5978 54.4801 35.893C54.4801 36.188 54.5951 36.4655 54.8037 36.6741L55.3306 37.2011H50.8372C50.228 37.2011 49.7324 37.6966 49.7324 38.3058V41.2904C49.7324 41.8996 50.228 42.3952 50.8372 42.3952H55.3306L54.8037 42.9221C54.373 43.3528 54.373 44.0537 54.8037 44.4844L56.492 46.1727C56.7007 46.3814 56.9781 46.4964 57.2732 46.4964C57.5683 46.4964 57.8458 46.3814 58.0544 46.1728L62.8037 41.4235C63.7 40.5272 63.7 39.0689 62.8037 38.1728ZM62.0855 40.7052L57.3361 45.4545C57.3146 45.476 57.29 45.4806 57.2732 45.4806C57.2564 45.4806 57.2318 45.4761 57.2103 45.4545L55.522 43.7662C55.4873 43.7315 55.4873 43.675 55.522 43.6403L56.9159 42.2464C57.0612 42.1011 57.1046 41.8826 57.026 41.6929C56.9474 41.5032 56.7622 41.3795 56.5568 41.3795H50.8373C50.7882 41.3795 50.7482 41.3395 50.7482 41.2904V38.3058C50.7482 38.2568 50.7882 38.2167 50.8373 38.2167H56.5568C56.7621 38.2167 56.9474 38.093 57.026 37.9033C57.1046 37.7135 57.0612 37.4951 56.9159 37.3499L55.5219 35.9558C55.5004 35.9343 55.4958 35.9097 55.4958 35.893C55.4958 35.8761 55.5003 35.8515 55.5219 35.83L57.2103 34.1416C57.2318 34.1201 57.2564 34.1155 57.2732 34.1155C57.2901 34.1155 57.3146 34.12 57.3362 34.1416L62.0855 38.891C62.5858 39.3912 62.5858 40.2049 62.0855 40.7052Z" fill="#2626BC"/>
<path d="M23.5131 46.1725L25.2014 44.4843C25.4101 44.2755 25.5251 43.9982 25.5251 43.703C25.5251 43.4079 25.4101 43.1305 25.2015 42.9218L24.6745 42.3949H29.168C29.7772 42.3949 30.2728 41.8994 30.2728 41.2902V38.3056C30.2728 37.6964 29.7772 37.2008 29.168 37.2008H24.6745L25.2015 36.6739C25.6322 36.2431 25.6322 35.5423 25.2015 35.1116L23.5132 33.4233C23.3045 33.2146 23.0271 33.0996 22.732 33.0996C22.4369 33.0996 22.1594 33.2146 21.9508 33.4232L17.2015 38.1725C16.3052 39.0688 16.3052 40.527 17.2015 41.4232L21.9508 46.1724C22.1595 46.3811 22.4369 46.4961 22.732 46.4961C23.0271 46.4961 23.3045 46.3811 23.5131 46.1725ZM17.9197 40.705C17.4194 40.2048 17.4194 39.3909 17.9197 38.8908L22.6691 34.1415C22.6906 34.12 22.7152 34.1154 22.732 34.1154C22.7488 34.1154 22.7734 34.1199 22.7949 34.1415L24.4832 35.8298C24.5179 35.8645 24.5179 35.921 24.4832 35.9557L23.0893 37.3496C22.944 37.4949 22.9006 37.7133 22.9792 37.9031C23.0578 38.0928 23.2429 38.2165 23.4484 38.2165H29.1679C29.217 38.2165 29.257 38.2565 29.257 38.3056V41.2902C29.257 41.3392 29.217 41.3792 29.1679 41.3792H23.4484C23.243 41.3792 23.0578 41.5029 22.9792 41.6927C22.9006 41.8825 22.944 42.1009 23.0893 42.2461L24.4833 43.6401C24.5048 43.6617 24.5094 43.6862 24.5094 43.703C24.5094 43.7199 24.5049 43.7444 24.4833 43.766L22.7949 45.4543C22.7734 45.4759 22.7488 45.4804 22.732 45.4804C22.7151 45.4804 22.6906 45.476 22.669 45.4543L17.9197 40.705Z" fill="#2626BC"/>
<path d="M56.1708 46.9503H53.7833C53.1741 46.9503 52.6785 47.4459 52.6785 48.0551V48.8004L49.5012 45.623C49.2925 45.4143 49.0151 45.2993 48.72 45.2993C48.4249 45.2993 48.1475 45.4143 47.9389 45.6229L45.8286 47.7332C45.6199 47.9419 45.5049 48.2193 45.5049 48.5145C45.5049 48.8095 45.6199 49.087 45.8285 49.2956L49.0058 52.473H48.2605C47.6513 52.473 47.1558 52.9685 47.1558 53.5777V55.9653C47.1558 56.5745 47.6513 57.07 48.2605 57.07H54.9771C56.2446 57.07 57.2756 56.0389 57.2756 54.7715V48.055C57.2756 47.4459 56.78 46.9503 56.1708 46.9503ZM56.2599 54.7716C56.2599 55.479 55.6844 56.0545 54.9771 56.0545H48.2605C48.2115 56.0545 48.1714 56.0144 48.1714 55.9654V53.5778C48.1714 53.5288 48.2115 53.4887 48.2605 53.4887H50.2319C50.4372 53.4887 50.6225 53.365 50.7011 53.1753C50.7796 52.9855 50.7362 52.7671 50.591 52.6219L46.5467 48.5775C46.5251 48.556 46.5206 48.5314 46.5206 48.5147C46.5206 48.4978 46.525 48.4732 46.5467 48.4517L48.657 46.3413C48.6786 46.3198 48.7032 46.3152 48.72 46.3152C48.7369 46.3152 48.7614 46.3197 48.783 46.3413L52.8273 50.3855C52.9726 50.5308 53.191 50.5742 53.3808 50.4956C53.5705 50.417 53.6942 50.2319 53.6942 50.0264V48.0551C53.6942 48.006 53.7342 47.966 53.7833 47.966H56.1708C56.2199 47.966 56.2599 48.006 56.2599 48.0551V54.7716Z" fill="#2626BC"/>
<path d="M23.8343 32.6457H26.2219C26.8311 32.6457 27.3267 32.1502 27.3267 31.541V30.7956L30.504 33.973C30.7127 34.1817 30.9901 34.2967 31.2852 34.2967C31.5803 34.2967 31.8577 34.1817 32.0663 33.9731L34.1766 31.8628C34.3853 31.6541 34.5003 31.3767 34.5003 31.0816C34.5003 30.7865 34.3853 30.509 34.1767 30.3004L30.9994 27.123H31.7446C32.3538 27.123 32.8493 26.6275 32.8493 26.0183V23.6306C32.8493 23.0214 32.3538 22.5259 31.7446 22.5259H25.028C23.7605 22.5259 22.7295 23.557 22.7295 24.8244V31.541C22.7296 32.1502 23.2251 32.6457 23.8343 32.6457ZM23.7453 24.8244C23.7453 24.117 24.3208 23.5416 25.0281 23.5416H31.7447C31.7937 23.5416 31.8337 23.5816 31.8337 23.6306V26.0182C31.8337 26.0673 31.7937 26.1073 31.7447 26.1073H29.7733C29.568 26.1073 29.3827 26.231 29.3041 26.4207C29.2256 26.6105 29.2689 26.8289 29.4142 26.9742L33.4584 31.0184C33.48 31.0399 33.4845 31.0646 33.4845 31.0814C33.4845 31.0982 33.4801 31.1228 33.4584 31.1443L31.3481 33.2549C31.3266 33.2764 31.302 33.281 31.2852 33.281C31.2683 33.281 31.2438 33.2765 31.2222 33.2549L27.1779 29.2107C27.0807 29.1135 26.9509 29.062 26.8186 29.062C26.7532 29.062 26.6872 29.0747 26.6243 29.1006C26.4346 29.1792 26.3109 29.3644 26.3109 29.5698V31.5412C26.3109 31.5902 26.2709 31.6302 26.2218 31.6302H23.8343C23.7853 31.6302 23.7453 31.5902 23.7453 31.5412V24.8244Z" fill="#2626BC"/>
<path d="M40.0021 32.5254C35.992 32.5254 32.7295 35.7879 32.7295 39.798C32.7295 43.8081 35.992 47.0705 40.0021 47.0705C44.0122 47.0705 47.2746 43.8081 47.2746 39.798C47.2746 35.7879 44.0122 32.5254 40.0021 32.5254ZM40.0021 46.0549C36.552 46.0549 33.7452 43.248 33.7452 39.798C33.7452 36.3479 36.552 33.5411 40.0021 33.5411C43.4521 33.5411 46.259 36.3479 46.259 39.798C46.259 43.248 43.4521 46.0549 40.0021 46.0549Z" fill="#2626BC"/>
<path d="M30.8312 18.972C30.7012 18.972 30.5713 18.9224 30.4721 18.8233L29.4056 17.7568C29.2072 17.5585 29.2072 17.2369 29.4056 17.0386L30.4721 15.9722C30.6704 15.7739 30.9919 15.7739 31.1903 15.9722L32.2567 17.0386C32.4551 17.237 32.4551 17.5586 32.2567 17.7568L31.1903 18.8233C31.0911 18.9224 30.9611 18.972 30.8312 18.972ZM30.4829 17.3977L30.8312 17.746L31.1795 17.3977L30.8312 17.0494L30.4829 17.3977Z" fill="#01ECA5"/>
<path d="M60.4718 31.8648C60.3418 31.8648 60.2119 31.8152 60.1127 31.7161L59.0462 30.6497C58.8479 30.4513 58.8479 30.1297 59.0462 29.9315L60.1127 28.865C60.3111 28.6667 60.6325 28.6667 60.8309 28.865L61.8973 29.9315C62.0957 30.1298 62.0957 30.4514 61.8973 30.6497L60.8309 31.7161C60.7318 31.8152 60.6017 31.8648 60.4718 31.8648ZM60.1236 30.2905L60.4718 30.6388L60.8201 30.2905L60.4718 29.9422L60.1236 30.2905Z" fill="#FF7EB8"/>
<path d="M20.091 52.034C19.961 52.034 19.8311 51.9844 19.7318 51.8853L18.6654 50.8188C18.467 50.6205 18.467 50.2989 18.6654 50.1007L19.7318 49.0342C19.9302 48.8359 20.2517 48.8359 20.45 49.0342L21.5165 50.1007C21.7149 50.299 21.7149 50.6206 21.5165 50.8188L20.45 51.8853C20.3509 51.9843 20.221 52.034 20.091 52.034ZM19.7428 50.4597L20.0911 50.808L20.4394 50.4597L20.0911 50.1114L19.7428 50.4597Z" fill="#FF7EB8"/>
<path d="M60.4718 50.1358C60.3418 50.1358 60.2119 50.0862 60.1126 49.9871C59.9143 49.7887 59.9143 49.4671 60.1126 49.2689L61.1283 48.2532C61.3267 48.0549 61.6481 48.0549 61.8465 48.2532C62.0449 48.4516 62.0449 48.7731 61.8465 48.9714L60.8308 49.9871C60.7317 50.0862 60.6017 50.1358 60.4718 50.1358Z" fill="#6583FE"/>
<path d="M22.8917 61.9961C22.7617 61.9961 22.6318 61.9465 22.5326 61.8474C22.3342 61.649 22.3342 61.3275 22.5326 61.1292L23.5482 60.1135C23.7466 59.9153 24.0681 59.9153 24.2664 60.1135C24.4648 60.3119 24.4648 60.6335 24.2664 60.8317L23.2507 61.8474C23.1516 61.9465 23.0216 61.9961 22.8917 61.9961Z" fill="#6583FE"/>
<defs>
<linearGradient id="paint0_linear" x1="20.182" y1="59.1715" x2="62.8976" y2="16.4558" gradientUnits="userSpaceOnUse">
<stop offset="0.0485" stop-color="#D2DEFF"/>
<stop offset="0.9993" stop-color="#DCFDEE"/>
</linearGradient>
</defs>
</svg>
