<svg width="80" height="80" viewBox="0 0 80 80" fill="none" xmlns="http://www.w3.org/2000/svg">
<rect x="0.645508" y="0.666504" width="79.3333" height="79.3333" rx="16.6667" fill="#F8F9FC"/>
<path d="M64.405 39.295C63.9203 36.9194 62.5882 34.4747 60.2881 33.7079C58.3853 33.0735 56.0384 33.8165 54.4228 32.628C50.4891 29.7342 52.2898 25.5191 45.4642 26.153C43.9501 26.2936 42.2128 26.0785 41.2645 24.8895C40.2969 23.676 40.5629 21.9327 40.2752 20.4075C39.7031 17.3757 36.7545 15.0691 33.6812 14.7967C24.2639 13.9624 20.2087 17.132 16.5683 24.4527C15.7472 26.1037 14.9599 28.0013 15.5304 29.7549C17.4467 35.6441 25.2002 32.8984 29.8871 33.3802C36.4351 34.0532 32.6679 39.9524 36.6834 41.1223C37.5469 41.3739 38.4355 40.8256 39.3265 40.7038C41.7538 40.3718 43.9084 42.8344 44.0259 45.2815C44.2557 50.0673 41.0291 54.3822 38.881 58.5092C37.1991 61.7404 37.6818 65.3222 41.5052 65.9916C53.1962 68.0382 66.7359 50.7192 64.405 39.295Z" fill="url(#paint0_linear)"/>
<path opacity="0.1" d="M58.6016 26.2079L36.7978 28.2052L30.7909 22.1984C30.2849 21.6923 29.4643 21.6923 28.9582 22.1984L26.9249 24.2317C26.4188 24.7377 26.4188 25.5583 26.9249 26.0644L31.7017 30.8412V41.2929H21.3092C20.1989 41.2929 19.2979 42.193 19.2979 43.3043V59.6788C19.2979 60.7901 20.1989 61.6902 21.3092 61.6902H24.632L25.9665 63.5075C26.3688 64.0546 27.1864 64.0546 27.5877 63.5075L28.9233 61.6902H49.6816C50.7929 61.6902 51.6929 60.7901 51.6929 59.6788V46.3215H58.7776C59.8429 46.3215 60.7065 45.458 60.7065 44.3926V28.1287C60.7066 26.9939 59.7317 26.1043 58.6016 26.2079Z" fill="#2626BC"/>
<path d="M51.6929 40.8905V57.2651C51.6929 58.3764 50.7929 59.2764 49.6816 59.2764H28.9233L27.5877 61.0937C27.1864 61.6408 26.3688 61.6408 25.9665 61.0937L24.632 59.2764H21.3092C20.1989 59.2764 19.2979 58.3764 19.2979 57.2651V40.8905C19.2979 39.7792 20.1989 38.8792 21.3092 38.8792H49.6816C50.7929 38.8792 51.6929 39.7792 51.6929 40.8905Z" fill="#8399FE"/>
<path d="M51.6931 40.8905V46.3212H42.0446L40.4094 48.4C39.9457 48.9883 39.0537 48.9883 38.5901 48.4L36.9548 46.3212H33.6311C32.565 46.3212 31.7021 45.4573 31.7021 44.3923V38.8792H49.6818C50.7931 38.8792 51.6931 39.7792 51.6931 40.8905Z" fill="#6583FE"/>
<path d="M41.278 59.2765C40.9485 59.0936 40.6837 58.7539 40.6837 58.1712C40.6837 57.0262 41.9981 56.4845 42.6429 56.071C43.2877 55.6742 43.7093 55.3107 43.9077 54.9798V58.2129C43.5463 58.7238 43.2152 59.0715 42.772 59.2765H47.479C47.479 59.2746 47.4789 59.2728 47.4789 59.2709V52.988C47.4789 52.0788 47.4169 51.3597 47.293 50.8304C47.169 50.3014 46.9248 49.8551 46.5613 49.4912C46.1645 49.0945 45.6685 48.8135 45.0733 48.648C43.7808 48.2887 42.4005 48.2966 41.0915 48.5639C40.0047 48.7856 38.8018 49.1947 38.1416 50.1484C37.299 51.3659 38.0734 53.2361 39.6171 53.2361C41.5353 53.2362 42.2889 50.7651 40.6334 49.7398C41.0838 49.5592 41.941 49.3097 42.7911 49.5759C43.4523 49.7829 43.906 50.4 43.9076 51.0929V51.1033V53.0377C43.9076 53.4842 43.6968 53.8357 43.2752 54.0918C41.5315 55.1512 39.088 55.2325 37.7448 56.919C37.2281 57.5677 37.0512 58.451 37.1743 59.2767H41.278V59.2765Z" fill="#9FB0FE"/>
<path d="M38.1835 56.9903C38.4612 56.9903 38.6863 56.7652 38.6863 56.4875C38.6863 56.2097 38.4612 55.9846 38.1835 55.9846C37.9058 55.9846 37.6807 56.2097 37.6807 56.4875C37.6807 56.7652 37.9058 56.9903 38.1835 56.9903Z" fill="white"/>
<path d="M36.3212 56.9903C36.5989 56.9903 36.824 56.7652 36.824 56.4875C36.824 56.2097 36.5989 55.9846 36.3212 55.9846C36.0435 55.9846 35.8184 56.2097 35.8184 56.4875C35.8184 56.7652 36.0435 56.9903 36.3212 56.9903Z" fill="white"/>
<path d="M34.4599 56.9903C34.7376 56.9903 34.9627 56.7652 34.9627 56.4875C34.9627 56.2097 34.7376 55.9846 34.4599 55.9846C34.1822 55.9846 33.957 56.2097 33.957 56.4875C33.957 56.7652 34.1822 56.9903 34.4599 56.9903Z" fill="white"/>
<path d="M33.4542 26.0977L58.6012 23.7941C59.7313 23.6906 60.7061 24.5802 60.7061 25.715V41.9789C60.7061 43.0442 59.8425 43.9079 58.7771 43.9079H42.0444L40.4086 45.9862C39.9452 46.5749 39.053 46.5749 38.5897 45.9862L36.9539 43.9079H33.6302C32.5649 43.9079 31.7012 43.0443 31.7012 41.9789V28.0186C31.7012 27.0214 32.4612 26.1886 33.4542 26.0977Z" fill="#FF7EB8"/>
<path d="M40.8046 36.9626L38.5207 36.6217C37.7282 36.504 36.9941 36.1339 36.4269 35.5667L31.7012 30.841V28.0191C31.7012 27.0214 32.4615 26.1887 33.4541 26.0982L34.5865 25.9946L40.2917 31.6999C40.8589 32.2661 41.229 33.0002 41.3467 33.7937L41.6876 36.0796C41.7661 36.5955 41.3215 37.0391 40.8046 36.9626Z" fill="#FF5BA8"/>
<path d="M45.3215 39.2352H35.4071C35.1295 39.2352 34.9043 39.0101 34.9043 38.7323C34.9043 38.4546 35.1295 38.2295 35.4071 38.2295H45.3215C45.5992 38.2295 45.8243 38.4546 45.8243 38.7323C45.8243 39.0101 45.5991 39.2352 45.3215 39.2352Z" fill="#FE2C8F"/>
<path d="M45.3218 41.285H37.4189C37.1412 41.285 36.916 41.0599 36.916 40.7821C36.916 40.5044 37.1412 40.2793 37.4189 40.2793H45.3218C45.5996 40.2793 45.8247 40.5044 45.8247 40.7821C45.8247 41.0599 45.5995 41.285 45.3218 41.285Z" fill="#FE2C8F"/>
<path d="M45.3225 37.1854H35.4081C35.1304 37.1854 34.9053 36.9603 34.9053 36.6825C34.9053 36.4048 35.1304 36.1797 35.4081 36.1797H45.3225C45.6002 36.1797 45.8253 36.4048 45.8253 36.6825C45.8253 36.9603 45.6001 37.1854 45.3225 37.1854Z" fill="#FE2C8F"/>
<path d="M50.2793 31.2976V35.2567C50.2793 35.5732 50.5358 35.8298 50.8523 35.8298H53.9853L54.537 36.5809C54.7032 36.807 55.0412 36.807 55.207 36.5809L55.7591 35.8298H56.8923C57.2088 35.8298 57.4653 35.5732 57.4653 35.2567V31.2976C57.4653 30.9812 57.2088 30.7246 56.8923 30.7246H50.8524C50.5358 30.7246 50.2793 30.9812 50.2793 31.2976Z" fill="#FFDBED"/>
<path d="M54.8666 28.4019V32.361C54.8666 32.6775 54.61 32.934 54.2935 32.934H51.1605L50.6089 33.6852C50.4427 33.9112 50.1047 33.9112 49.9388 33.6852L49.3868 32.934H48.2537C47.9372 32.934 47.6807 32.6775 47.6807 32.361V28.4019C47.6807 28.0854 47.9372 27.8289 48.2537 27.8289H54.2935C54.61 27.8289 54.8666 28.0854 54.8666 28.4019Z" fill="white"/>
<path d="M56.9633 41.2851H48.1835C47.9058 41.2851 47.6807 41.0599 47.6807 40.7822V38.6623C47.6807 38.3846 47.9058 38.1594 48.1835 38.1594H56.9633C57.241 38.1594 57.4662 38.3846 57.4662 38.6623V40.7822C57.4662 41.0599 57.241 41.2851 56.9633 41.2851Z" fill="#FFA8CF"/>
<path d="M30.7905 19.7845L40.2916 29.2857C40.8586 29.8528 41.2286 30.5869 41.3469 31.3801L41.6877 33.6655C41.7657 34.1814 41.3211 34.6258 40.8043 34.5489L38.5208 34.2083C37.7278 34.09 36.9939 33.7202 36.427 33.1533L26.9245 23.6508C26.4184 23.1447 26.4184 22.3242 26.9245 21.8181L28.9579 19.7848C29.4639 19.2785 30.2845 19.2785 30.7905 19.7845Z" fill="#02FFB3"/>
<path d="M27.4229 21.3198L28.4559 20.2868L38.638 30.4689L37.6049 31.5019L27.4229 21.3198Z" fill="#DCFDEE"/>
<path d="M40.2933 29.287C40.8596 29.8533 41.2289 30.5873 41.3472 31.38L41.688 33.6654C41.766 34.1813 41.3215 34.6257 40.8046 34.5488L38.5192 34.2079C37.7265 34.0897 36.9935 33.7195 36.4272 33.1532C36.4272 33.1532 36.3648 31.9784 37.7412 30.6021C39.1177 29.2256 40.2933 29.287 40.2933 29.287Z" fill="#FFC4DF"/>
<path d="M41.4269 31.911L41.689 33.6649C41.7669 34.1809 41.3224 34.6253 40.8056 34.5483L39.0526 34.2872C39.0123 33.6677 39.2294 33.0345 39.7023 32.5617C40.1751 32.0888 40.8084 31.8716 41.4269 31.911Z" fill="#4369FD"/>
<path d="M60.4168 23.9187C59.9131 23.4591 59.2358 23.2307 58.5558 23.2933L39.8373 25.008C39.5607 25.0334 39.357 25.278 39.3824 25.5546C39.4078 25.8312 39.6512 26.0352 39.9291 26.0095L58.6476 24.2947C59.0518 24.2576 59.4392 24.3879 59.7389 24.6615C60.0386 24.935 60.2038 25.309 60.2038 25.7149V41.9787C60.2038 42.7651 59.5641 43.4048 58.7777 43.4048H42.0448C41.8907 43.4048 41.745 43.4755 41.6497 43.5967L40.0139 45.675C39.8889 45.8337 39.7015 45.9247 39.4995 45.9247C39.2976 45.9247 39.1101 45.8337 38.9852 45.675L37.3494 43.5967C37.2542 43.4755 37.1084 43.4048 36.9543 43.4048H33.6305C32.8441 43.4048 32.2043 42.7651 32.2043 41.9787V29.6411L36.0714 33.5082C36.7098 34.1465 37.5529 34.5714 38.4457 34.7046L40.7304 35.0455C40.7953 35.0552 40.8598 35.06 40.9239 35.06C41.2607 35.06 41.5812 34.9282 41.8248 34.6846C42.1147 34.3947 42.2463 33.9958 42.1858 33.5903L41.8449 31.3057C41.7115 30.4128 41.2865 29.5695 40.6483 28.9313L31.1467 19.4296C30.4455 18.7283 29.3042 18.7281 28.603 19.4296L26.5698 21.4628C25.8683 22.1641 25.8683 23.3053 26.5698 24.0067L31.1986 28.6356V38.3764H21.3091C19.9228 38.3764 18.7949 39.5042 18.7949 40.8906V57.2651C18.7949 58.6515 19.9228 59.7793 21.3091 59.7793H24.3774L25.5614 61.3917C25.8489 61.7828 26.2921 62.0069 26.7774 62.0069H26.7783C27.2636 62.0066 27.7064 61.7823 27.9929 61.3916L29.1776 59.7793H49.6815C51.0678 59.7793 52.1957 58.6515 52.1957 57.2651V46.7912C52.1957 46.5136 51.9706 46.2884 51.6929 46.2884C51.4151 46.2884 51.19 46.5136 51.19 46.7912V57.2649C51.19 58.0967 50.5133 58.7735 49.6815 58.7735H28.9232C28.7632 58.7735 28.6127 58.8496 28.518 58.9785L27.1823 60.7962C27.0869 60.9262 26.9395 61.0009 26.7778 61.001C26.7777 61.001 26.7776 61.001 26.7775 61.001C26.6156 61.001 26.4677 60.9262 26.3719 60.7959L25.0373 58.9786C24.9426 58.8496 24.7921 58.7734 24.632 58.7734H21.3092C20.4774 58.7734 19.8007 58.0966 19.8007 57.2648V40.8903C19.8007 40.0585 20.4774 39.3818 21.3092 39.3818H31.1988V41.9786C31.1988 43.3195 32.2898 44.4104 33.6307 44.4104H36.7103L38.1952 46.2968C38.5119 46.6993 38.9875 46.9302 39.4997 46.9302C40.012 46.9302 40.4874 46.6993 40.8043 46.2968L42.2892 44.4104H58.7779C60.1188 44.4104 61.2097 43.3195 61.2097 41.9786V25.7149C61.2094 25.033 60.9205 24.3783 60.4168 23.9187ZM27.2809 22.1738L29.3141 20.1406C29.4688 19.9859 29.6719 19.9087 29.8748 19.9087C30.078 19.9087 30.281 19.986 30.4357 20.1406L39.9373 29.6423C40.4244 30.1293 40.7485 30.7727 40.8503 31.454L41.1912 33.7387C41.209 33.8578 41.1504 33.9369 41.1137 33.9735C41.0772 34.01 40.9972 34.0686 40.8789 34.0509L38.5942 33.71C37.9131 33.6083 37.2695 33.2841 36.7824 32.797L27.2808 23.2953C26.9717 22.9862 26.9717 22.483 27.2809 22.1738Z" fill="#2626BC"/>
<path d="M23.2392 52.7713H35.5671C35.8448 52.7713 36.07 52.5462 36.07 52.2685C36.07 51.9907 35.8448 51.7656 35.5671 51.7656H23.2392C22.9614 51.7656 22.7363 51.9907 22.7363 52.2685C22.7363 52.5462 22.9614 52.7713 23.2392 52.7713Z" fill="#D2DEFF"/>
<path d="M23.2392 54.8209H28.3262C28.6039 54.8209 28.8291 54.5958 28.8291 54.318C28.8291 54.0403 28.6039 53.8152 28.3262 53.8152H23.2392C22.9614 53.8152 22.7363 54.0403 22.7363 54.318C22.7363 54.5958 22.9614 54.8209 23.2392 54.8209Z" fill="#D2DEFF"/>
<path d="M23.2401 50.7215H35.5681C35.8458 50.7215 36.071 50.4964 36.071 50.2187C36.071 49.9409 35.8458 49.7158 35.5681 49.7158H23.2401C22.9624 49.7158 22.7373 49.9409 22.7373 50.2187C22.7373 50.4964 22.9624 50.7215 23.2401 50.7215Z" fill="#D2DEFF"/>
<path d="M30.2712 46.6658H23.3319C23.0543 46.6658 22.8291 46.4406 22.8291 46.1629V43.3473C22.8291 43.0697 23.0543 42.8445 23.3319 42.8445H30.2712C30.5488 42.8445 30.774 43.0697 30.774 43.3473V46.1629C30.774 46.4406 30.5488 46.6658 30.2712 46.6658Z" fill="#FF7EB8"/>
<path d="M56.9641 52.2801C56.8354 52.2801 56.7066 52.231 56.6085 52.1329L55.5526 51.0769C55.3562 50.8805 55.3562 50.5621 55.5526 50.3658L56.6085 49.3098C56.8048 49.1135 57.1234 49.1135 57.3196 49.3098L58.3755 50.3658C58.5719 50.5622 58.5719 50.8806 58.3755 51.0769L57.3196 52.1329C57.2215 52.2309 57.0927 52.2801 56.9641 52.2801ZM56.6192 50.7213L56.9641 51.0662L57.3089 50.7213L56.9641 50.3765L56.6192 50.7213Z" fill="#FF7EB8"/>
<path d="M25.7844 31.0208C25.6557 31.0208 25.5269 30.9718 25.4289 30.8736L24.3729 29.8176C24.1765 29.6212 24.1765 29.3028 24.3729 29.1065L25.4289 28.0506C25.6251 27.8542 25.9437 27.8542 26.1399 28.0506L27.1958 29.1065C27.3923 29.3029 27.3923 29.6213 27.1958 29.8176L26.1399 30.8736C26.0417 30.9718 25.913 31.0208 25.7844 31.0208ZM25.4395 29.462L25.7844 29.8069L26.1292 29.462L25.7844 29.1172L25.4395 29.462Z" fill="#FF7EB8"/>
<path d="M26.0429 36.6153C25.9142 36.6153 25.7854 36.5662 25.6873 36.468C25.4909 36.2716 25.4909 35.9532 25.6873 35.7569L26.693 34.7512C26.8892 34.5549 27.2078 34.5549 27.404 34.7512C27.6005 34.9476 27.6005 35.266 27.404 35.4624L26.3984 36.468C26.3003 36.5662 26.1716 36.6153 26.0429 36.6153Z" fill="#01ECA5"/>
<path d="M56.9647 22.0313C56.8361 22.0313 56.7073 21.9822 56.6092 21.8841C56.4128 21.6876 56.4128 21.3692 56.6092 21.1729L57.6149 20.1673C57.8111 19.9709 58.1297 19.9709 58.3259 20.1673C58.5223 20.3637 58.5223 20.6821 58.3259 20.8784L57.3202 21.8841C57.2222 21.9822 57.0934 22.0313 56.9647 22.0313Z" fill="#6583FE"/>
<path d="M34.4589 63.8211C34.3302 63.8211 34.2014 63.772 34.1034 63.6738C33.907 63.4774 33.907 63.159 34.1034 62.9627L35.109 61.957C35.3053 61.7607 35.6239 61.7607 35.8201 61.957C36.0165 62.1535 36.0165 62.4719 35.8201 62.6682L34.8144 63.6738C34.7162 63.7719 34.5875 63.8211 34.4589 63.8211Z" fill="#6583FE"/>
<defs>
<linearGradient id="paint0_linear" x1="25.9041" y1="51.6662" x2="52.4356" y2="25.1348" gradientUnits="userSpaceOnUse">
<stop offset="0.0485" stop-color="#FFDBED"/>
<stop offset="0.9993" stop-color="#D2DEFF"/>
</linearGradient>
</defs>
</svg>
