<svg width="36" height="36" viewBox="0 0 36 36" fill="none" xmlns="http://www.w3.org/2000/svg">
<g clip-path="url(#clip0)">
<path d="M26.2988 16.998C25.8297 13.1709 22.8093 10.158 18.981 9.69862C18.6513 9.661 18.3199 9.64216 17.9881 9.64209C14.6048 9.64729 11.5584 11.692 10.2719 14.8211C8.98528 17.9502 9.71238 21.5464 12.1136 23.9299C13.3904 25.1527 14.1217 26.8379 14.1426 28.6057V29.5713H21.8568V28.6007C21.8626 26.8663 22.5682 25.2077 23.8137 24.0006C25.6948 22.1856 26.6149 19.593 26.2987 16.9983V16.998H26.2988Z" fill="#1FDB84"/>
<path d="M18.0002 36.0001C18.8173 35.9992 19.5454 35.4843 19.8187 34.7144H16.1819C16.4551 35.4843 17.1832 35.9992 18.0002 36.0001Z" fill="#1FDB84"/>
<path d="M14.7859 32.7858C14.7864 33.1406 15.0739 33.4282 15.4288 33.4286H20.5716C20.9265 33.4282 21.214 33.1406 21.2145 32.7858V30.8572H14.7859V32.7858Z" fill="#1FDB84"/>
<path d="M17.9998 5.78573C18.7099 5.78573 19.2856 5.21009 19.2856 4.5V1.28573C19.2856 0.575648 18.7099 0 17.9998 0C17.2898 0 16.7141 0.575648 16.7141 1.28573V4.5C16.7141 5.21009 17.2898 5.78573 17.9998 5.78573Z" fill="#1FDB84"/>
<path d="M7.1493 8.96766C7.65809 9.45359 8.45894 9.45359 8.96773 8.96766C9.2089 8.72655 9.34439 8.39946 9.34439 8.05845C9.34439 7.71743 9.2089 7.39034 8.96773 7.14923L6.69473 4.87666C6.4537 4.63549 6.12668 4.5 5.78573 4.5C5.44479 4.5 5.11777 4.63549 4.87666 4.87666C4.63549 5.1177 4.5 5.44472 4.5 5.78573C4.5 6.12675 4.63549 6.4537 4.87666 6.6948L7.1493 8.96766Z" fill="#1FDB84"/>
<path d="M5.78573 17.9998C5.78573 17.2898 5.21009 16.7141 4.5 16.7141H1.28573C0.57593 16.7148 0.000703125 17.29 0 17.9998C0.000703125 18.7096 0.57593 19.2848 1.28573 19.2856H4.5C5.21009 19.2856 5.78573 18.7099 5.78573 17.9998Z" fill="#1FDB84"/>
<path d="M8.39216 26.6974C7.94778 26.5787 7.47388 26.7063 7.14924 27.0322L4.87667 29.3051C4.63549 29.5462 4.5 29.8732 4.5 30.2142C4.5 30.5552 4.63549 30.8822 4.87667 31.1233C5.38531 31.6092 6.1861 31.6092 6.69474 31.1233L8.96767 28.8507C9.2935 28.5261 9.42119 28.0522 9.30243 27.6078C9.18367 27.1634 8.83654 26.8162 8.39216 26.6974Z" fill="#1FDB84"/>
<path d="M28.8508 27.0324C28.5262 26.7066 28.0523 26.5789 27.6079 26.6977C27.1635 26.8164 26.8164 27.1635 26.6977 27.6079C26.5789 28.0522 26.7065 28.5261 27.0324 28.8508L29.3054 31.1233C29.814 31.6093 30.6148 31.6093 31.1235 31.1233C31.3646 30.8823 31.5001 30.5553 31.5001 30.2143C31.5001 29.8733 31.3646 29.5463 31.1235 29.3052L28.8508 27.0324Z" fill="#1FDB84"/>
<path d="M34.7146 16.7141H31.5003C30.7902 16.7141 30.2146 17.2898 30.2146 17.9998C30.2146 18.7099 30.7902 19.2856 31.5003 19.2856H34.7146C35.4247 19.2856 36.0003 18.7099 36.0003 17.9998C36.0003 17.2898 35.4247 16.7141 34.7146 16.7141Z" fill="#1FDB84"/>
<path d="M28.8507 8.96763L31.1233 6.69471C31.448 6.36993 31.5749 5.89659 31.456 5.45292C31.3371 5.00925 30.9906 4.66275 30.5469 4.54385C30.1032 4.42495 29.6299 4.55179 29.3051 4.87657L27.0322 7.14914C26.791 7.39024 26.6555 7.71733 26.6555 8.05835C26.6555 8.39936 26.791 8.72646 27.0322 8.96756C27.541 9.45356 28.342 9.45356 28.8507 8.96763Z" fill="#1FDB84"/>
</g>
<defs>
<clipPath id="clip0">
<rect width="36" height="36" fill="white"/>
</clipPath>
</defs>
</svg>
