<svg width="24" height="32" viewBox="0 0 24 32" fill="none" xmlns="http://www.w3.org/2000/svg">
<path d="M17 2H14.828C14.416 0.836 13.304 0 12 0C10.696 0 9.584 0.836 9.17 2H7C6.448 2 6 2.448 6 3V7C6 7.552 6.448 8 7 8H17C17.552 8 18 7.552 18 7V3C18 2.448 17.552 2 17 2Z" fill="#1FDB84"/>
<path d="M22 4H20V7C20 8.654 18.654 10 17 10H7C5.346 10 4 8.654 4 7V4H2C0.898 4 0 4.898 0 6V30C0 31.122 0.878 32 2 32H22C23.122 32 24 31.122 24 30V6C24 4.878 23.122 4 22 4ZM11.708 21.708L7.708 25.708C7.512 25.902 7.256 26 7 26C6.744 26 6.488 25.902 6.292 25.708L4.292 23.708C3.902 23.318 3.902 22.684 4.292 22.294C4.682 21.904 5.316 21.904 5.706 22.294L7 23.586L10.292 20.294C10.682 19.904 11.316 19.904 11.706 20.294C12.096 20.684 12.098 21.316 11.708 21.708ZM11.708 13.708L7.708 17.708C7.512 17.902 7.256 18 7 18C6.744 18 6.488 17.902 6.292 17.708L4.292 15.708C3.902 15.318 3.902 14.684 4.292 14.294C4.682 13.904 5.316 13.904 5.706 14.294L7 15.586L10.292 12.294C10.682 11.904 11.316 11.904 11.706 12.294C12.096 12.684 12.098 13.316 11.708 13.708ZM19 24H15C14.448 24 14 23.552 14 23C14 22.448 14.448 22 15 22H19C19.552 22 20 22.448 20 23C20 23.552 19.552 24 19 24ZM19 16H15C14.448 16 14 15.552 14 15C14 14.448 14.448 14 15 14H19C19.552 14 20 14.448 20 15C20 15.552 19.552 16 19 16Z" fill="#1FDB84"/>
</svg>
