<svg width="26" height="30" viewBox="0 0 26 30" fill="none" xmlns="http://www.w3.org/2000/svg">
<path d="M3.93509 23.9489H24.9852C25.0496 23.9489 25.112 23.94 25.1721 23.9261C25.1768 23.9261 25.1808 23.9269 25.1856 23.9269C25.6349 23.9269 26 23.5729 26 23.1364V0.790625C26.0001 0.354197 25.6349 0 25.1856 0H24.9868H5.23762H3.93623C1.76848 0 0.00521336 1.71214 0.00521336 3.81597C0.00521336 3.84418 0.0109321 3.87096 0.0137578 3.8982C0.0109321 5.84161 -0.0138941 23.6992 0.0109321 26.0467C0.00938464 26.0927 0.0035985 26.1375 0.0035985 26.1838C0.0035985 28.2068 1.63527 29.8629 3.68763 29.988C3.72881 29.9942 3.76918 30 3.8119 30H25.1855C25.6349 30 25.9999 29.646 25.9999 29.2094V26.2333C25.9999 25.797 25.6348 25.4427 25.1855 25.4427C24.7362 25.4427 24.3711 25.7971 24.3711 26.2333V28.4188H3.93509C2.69748 28.4188 1.68721 27.4649 1.63755 26.2754C1.63876 26.2542 1.64273 26.2341 1.64233 26.2125C1.64152 26.1778 1.64031 26.1237 1.6395 26.0519C1.71069 24.8812 2.71161 23.9489 3.93509 23.9489ZM4.49041 3.81597C4.49041 3.37954 4.85527 3.02534 5.30483 3.02534C5.7544 3.02534 6.11926 3.37954 6.11926 3.81597V19.8757C6.11926 20.3119 5.7544 20.6663 5.30483 20.6663C4.85527 20.6663 4.49041 20.3119 4.49041 19.8757V3.81597Z" fill="#1FDB84"/>
</svg>
