<svg width="22" height="22" viewBox="0 0 22 22" fill="none" xmlns="http://www.w3.org/2000/svg">
<path d="M18.9062 9.625H18.1686C17.9771 9.625 17.7894 9.57166 17.6265 9.47098C17.4635 9.37029 17.3319 9.22623 17.2462 9.05493L16.8438 8.25H18.9062V9.625Z" fill="#EA9D2D"/>
<path d="M18.9062 9.625H19.6439C19.8354 9.625 20.0231 9.57166 20.186 9.47098C20.349 9.37029 20.4806 9.22623 20.5663 9.05493L20.9688 8.25H18.9062V9.625Z" fill="#EA9D2D"/>
<path d="M18.9062 6.875L18.4497 7.55984C18.2991 7.78571 18.2187 8.05111 18.2188 8.32257V8.36795C18.2187 8.54852 18.2543 8.72733 18.3234 8.89415C18.3925 9.06098 18.4938 9.21256 18.6215 9.34025L18.9062 9.625L19.191 9.34025C19.3187 9.21256 19.42 9.06098 19.4891 8.89415C19.5582 8.72733 19.5938 8.54852 19.5938 8.36795V8.32257C19.5938 8.05111 19.5134 7.78571 19.3628 7.55984L18.9062 6.875Z" fill="#FBB540"/>
<path d="M7.5625 16.8438L8.25 16.1562L8.59375 15.125H13.4062L13.75 16.1562L14.4375 16.8438L15.125 17.3937L11 19.5938L6.875 17.5312L7.5625 16.8438Z" fill="#5D70B3"/>
<path d="M10.8427 18.5625L10.6696 19.4283L6.875 17.5313L7.5625 16.8438L7.71461 16.6917L10.8427 18.5625Z" fill="#CF5252"/>
<path d="M15.125 17.3937L11.4971 19.3286L11.3438 18.5624L14.3554 16.7616L14.4375 16.8437L15.125 17.3937Z" fill="#CF5252"/>
<path d="M8.25 8.72266L7.51137 8.96328C7.31178 9.06307 7.13614 9.20486 6.99651 9.37892C6.85688 9.55298 6.75656 9.75519 6.70244 9.97167L5.84375 13.4062L3.09375 15.125L2.0625 14.7812L1.03125 15.125L1.375 16.8438L6.49125 15.2449C6.61261 15.207 6.72507 15.145 6.8219 15.0626C6.91873 14.9802 6.99794 14.8791 7.05478 14.7654L8.25 12.375V8.72266Z" fill="#FDC9A6"/>
<path d="M13.75 8.72266L14.4886 8.96307C14.6882 9.06286 14.8639 9.20465 15.0035 9.37871C15.1431 9.55277 15.2434 9.75498 15.2976 9.97146L16.1562 13.4062L18.9062 15.125L19.9375 14.7812L20.9688 15.125L20.625 16.8438L15.5088 15.2449C15.3874 15.207 15.2749 15.145 15.1781 15.0626C15.0813 14.9802 15.0021 14.8791 14.9452 14.7654L13.75 12.375V8.72266Z" fill="#FDC9A6"/>
<path d="M12.0312 2.75L11.9114 2.15089C11.8483 1.83516 11.6777 1.55106 11.4287 1.34693C11.1797 1.1428 10.8677 1.03125 10.5457 1.03125C10.1763 1.03126 9.82205 1.178 9.56085 1.4392C9.14526 1.85477 8.8156 2.34813 8.59069 2.8911C8.36577 3.43408 8.25001 4.01604 8.25 4.60376V4.70078C8.25001 5.05238 8.16322 5.39854 7.99731 5.70854C7.83141 6.01854 7.59153 6.28278 7.29897 6.4778L7.21875 6.53125L7.48516 6.66445C7.82191 6.83286 8.19721 6.90924 8.57301 6.88585C8.9488 6.86245 9.31173 6.74012 9.625 6.53125L12.0312 2.75Z" fill="#683B0D"/>
<path d="M12.375 8.31875L12.0312 8.25V6.875H9.96875V8.25L9.625 8.31875V9.96875L11 11L12.375 9.96875V8.31875Z" fill="#FDC9A6"/>
<path d="M12.0312 6.875V7.21875C11.7337 7.44188 11.3719 7.5625 11 7.5625C10.6281 7.5625 10.2663 7.44188 9.96875 7.21875V6.875H12.0312Z" fill="#FDC9A6"/>
<path d="M12.375 8.31873L13.75 8.72263V10.3125C13.9495 10.6118 14.0487 10.9668 14.0331 11.3262C14.0175 11.6856 13.888 12.0307 13.6633 12.3116L13.0625 13.0625H8.9375L8.33676 12.3116C8.11204 12.0307 7.98252 11.6856 7.96693 11.3262C7.95133 10.9668 8.05047 10.6118 8.25 10.3125V8.72263L9.625 8.31873V9.96873L11 11L12.375 9.96873V8.31873Z" fill="#F1746A"/>
<path d="M8.9375 13.0625V13.6475C8.9375 13.9431 8.88985 14.2367 8.79639 14.5171L8.59375 15.125H13.4062L13.2036 14.5171C13.1101 14.2367 13.0625 13.9431 13.0625 13.6475V13.0625H8.9375Z" fill="#FDC9A6"/>
<path d="M15.125 17.3938L14.4375 16.8438L14.3554 16.7617L11.3438 18.5625H10.8427L7.71461 16.6917L7.5625 16.8438L6.875 17.5313L10.6696 19.25H11.4971L15.125 17.3938Z" fill="#4162AA"/>
<path d="M12.0312 6.875V7.21875C11.7337 7.44188 11.3719 7.5625 11 7.5625C10.6281 7.5625 10.2663 7.44188 9.96875 7.21875V6.875H12.0312Z" fill="#F6BB92"/>
<path d="M3.09375 9.96875H2.35611C2.16459 9.96875 1.97686 9.91541 1.81395 9.81473C1.65104 9.71404 1.51939 9.56998 1.43374 9.39868L1.03125 8.59375H3.09375V9.96875Z" fill="#029532"/>
<path d="M3.09375 9.96875H3.83139C4.02291 9.96875 4.21064 9.91541 4.37355 9.81473C4.53646 9.71404 4.66812 9.56998 4.75376 9.39868L5.15625 8.59375H3.09375V9.96875Z" fill="#029532"/>
<path d="M11.6875 20.625L17.704 18.1677C17.8601 18.0851 17.9979 17.972 18.1093 17.8351C18.2208 17.6981 18.3036 17.5402 18.3527 17.3706C18.4019 17.2011 18.4165 17.0234 18.3957 16.8481C18.3748 16.6728 18.3189 16.5034 18.2313 16.3501C18.1417 16.1933 18.0209 16.0566 17.8762 15.9485C17.7315 15.8404 17.5662 15.7632 17.3904 15.7217C17.2146 15.6802 17.0322 15.6752 16.8544 15.7072C16.6767 15.7392 16.5074 15.8074 16.3571 15.9076L11.3438 18.9063L11.6875 20.625Z" fill="#5D70B3"/>
<path d="M10.4989 20.625L4.48237 18.1677C4.32634 18.0851 4.1885 17.972 4.07706 17.8351C3.96562 17.6981 3.88284 17.5402 3.83365 17.3706C3.78446 17.2011 3.76986 17.0234 3.79072 16.8481C3.81157 16.6728 3.86746 16.5034 3.95506 16.3501C4.04465 16.1933 4.16554 16.0566 4.31021 15.9485C4.45488 15.8404 4.62023 15.7632 4.79601 15.7217C4.97178 15.6802 5.15421 15.6752 5.33196 15.7072C5.50971 15.7392 5.67899 15.8074 5.82927 15.9076L10.8426 18.9063L10.4989 20.625Z" fill="#5D70B3"/>
<path d="M11.3438 18.9062L9.625 19.25L8.59375 18.9062L7.90625 19.5938L8.25 20.625H11.6875L11.3438 18.9062Z" fill="#FDC9A6"/>
<path d="M12.7188 4.8125V5.5C12.7188 5.95584 12.5377 6.39301 12.2154 6.71534C11.893 7.03767 11.4559 7.21875 11 7.21875C10.5442 7.21875 10.107 7.03767 9.78466 6.71534C9.46233 6.39301 9.28125 5.95584 9.28125 5.5V4.125C9.28108 3.94255 9.30999 3.76124 9.36689 3.58789L12.7188 4.8125Z" fill="#FDC9A6"/>
<path d="M12.7188 4.12495V4.81245C11.6031 4.81245 10.5175 4.45059 9.625 3.7812L9.36719 3.58784C9.49483 3.1995 9.75669 2.86937 10.1058 2.6567C10.4549 2.44403 10.8683 2.36274 11.272 2.42742C11.6756 2.4921 12.043 2.69852 12.3081 3.00963C12.5733 3.32074 12.7189 3.71617 12.7188 4.12495Z" fill="#683B0D"/>
<path d="M3.09375 7.21875L2.63716 7.90359C2.48659 8.12946 2.40624 8.39486 2.40625 8.66632V8.7117C2.40625 8.89227 2.44182 9.07108 2.51092 9.2379C2.58002 9.40473 2.68131 9.55631 2.809 9.684L3.09375 9.96875L3.3785 9.684C3.50619 9.55631 3.60748 9.40473 3.67658 9.2379C3.74568 9.07108 3.78125 8.89227 3.78125 8.7117V8.66632C3.78126 8.39486 3.70091 8.12946 3.55034 7.90359L3.09375 7.21875Z" fill="#02A437"/>
</svg>
