<svg width="43" height="43" viewBox="0 0 43 43" fill="none" xmlns="http://www.w3.org/2000/svg">
<circle cx="21.2905" cy="21.3757" r="20.5402" stroke="#313A5A" stroke-opacity="0.1" stroke-width="0.696279"/>
<path d="M21.2903 13.5444C20.9478 13.5444 20.6086 13.6119 20.2921 13.743C19.9756 13.8741 19.6881 14.0662 19.4459 14.3084C19.2037 14.5506 19.0115 14.8382 18.8804 15.1547C18.7494 15.4711 18.6819 15.8103 18.6819 16.1529C18.6819 16.4954 18.7494 16.8346 18.8804 17.1511C19.0115 17.4675 19.2037 17.7551 19.4459 17.9973C19.6881 18.2395 19.9756 18.4317 20.2921 18.5627C20.6086 18.6938 20.9478 18.7613 21.2903 18.7613C21.9821 18.7613 22.6456 18.4865 23.1348 17.9973C23.6239 17.5081 23.8988 16.8447 23.8988 16.1529C23.8988 15.4611 23.6239 14.7976 23.1348 14.3084C22.6456 13.8192 21.9821 13.5444 21.2903 13.5444Z" fill="#313A5A"/>
<path d="M17.3738 21.3652C17.3762 21.0206 17.5148 20.6908 17.7594 20.448C18.0039 20.2051 18.3346 20.0688 18.6793 20.0688H23.9014C24.2476 20.0688 24.5797 20.2064 24.8245 20.4512C25.0694 20.6961 25.2069 21.0281 25.2069 21.3744V25.2909C25.2068 25.7018 25.1425 26.1101 25.0163 26.5012C24.7272 27.3872 24.1317 28.1412 23.3368 28.6277C22.5418 29.1142 21.5994 29.3014 20.6789 29.1556C19.7583 29.0099 18.9199 28.5407 18.3141 27.8324C17.7084 27.124 17.375 26.223 17.3738 25.2909V21.3744V21.3652Z" fill="#313A5A"/>
</svg>
