<svg width="43" height="43" viewBox="0 0 43 43" fill="none" xmlns="http://www.w3.org/2000/svg">
<circle cx="21.8115" cy="21.3757" r="20.5402" stroke="#313A5A" stroke-opacity="0.1" stroke-width="0.696279"/>
<path d="M21.8114 13.5444C21.4689 13.5444 21.1297 13.6119 20.8132 13.743C20.4968 13.8741 20.2092 14.0662 19.967 14.3084C19.7248 14.5506 19.5326 14.8382 19.4016 15.1547C19.2705 15.4711 19.203 15.8103 19.203 16.1529C19.203 16.4954 19.2705 16.8346 19.4016 17.1511C19.5326 17.4675 19.7248 17.7551 19.967 17.9973C20.2092 18.2395 20.4968 18.4317 20.8132 18.5627C21.1297 18.6938 21.4689 18.7613 21.8114 18.7613C22.5032 18.7613 23.1667 18.4865 23.6559 17.9973C24.1451 17.5081 24.4199 16.8447 24.4199 16.1529C24.4199 15.4611 24.1451 14.7976 23.6559 14.3084C23.1667 13.8192 22.5032 13.5444 21.8114 13.5444Z" fill="#313A5A"/>
<path d="M27.6863 14.8477C27.1669 14.8477 26.6688 15.054 26.3016 15.4212C25.9343 15.7885 25.728 16.2866 25.728 16.8059C25.728 17.3253 25.9343 17.8234 26.3016 18.1907C26.6688 18.5579 27.1669 18.7642 27.6863 18.7642C28.2057 18.7642 28.7038 18.5579 29.071 18.1907C29.4383 17.8234 29.6446 17.3253 29.6446 16.8059C29.6446 16.2866 29.4383 15.7885 29.071 15.4212C28.7038 15.054 28.2057 14.8477 27.6863 14.8477Z" fill="#313A5A"/>
<path d="M15.9367 14.8477C15.4173 14.8477 14.9192 15.054 14.552 15.4212C14.1847 15.7885 13.9784 16.2866 13.9784 16.8059C13.9784 17.3253 14.1847 17.8234 14.552 18.1907C14.9192 18.5579 15.4173 18.7642 15.9367 18.7642C16.456 18.7642 16.9541 18.5579 17.3214 18.1907C17.6886 17.8234 17.895 17.3253 17.895 16.8059C17.895 16.2866 17.6886 15.7885 17.3214 15.4212C16.9541 15.054 16.456 14.8477 15.9367 14.8477Z" fill="#313A5A"/>
<path d="M17.8949 21.3652C17.8973 21.0206 18.0359 20.6908 18.2805 20.448C18.5251 20.2051 18.8558 20.0688 19.2004 20.0688H24.4225C24.7688 20.0688 25.1008 20.2064 25.3457 20.4512C25.5905 20.6961 25.728 21.0281 25.728 21.3744V25.2909C25.7279 25.7018 25.6636 26.1101 25.5374 26.5012C25.2483 27.3872 24.6529 28.1412 23.8579 28.6277C23.0629 29.1142 22.1205 29.3014 21.2 29.1556C20.2794 29.0099 19.441 28.5407 18.8352 27.8324C18.2295 27.124 17.8961 26.223 17.8949 25.2909V21.3744V21.3652Z" fill="#313A5A"/>
<path d="M16.5894 21.3744C16.5894 20.8979 16.7161 20.4527 16.9393 20.0688H13.9784C13.6321 20.0688 13.3001 20.2064 13.0552 20.4512C12.8104 20.6961 12.6729 21.0281 12.6729 21.3744V24.6382C12.6727 25.1725 12.8037 25.6988 13.0544 26.1706C13.3051 26.6425 13.6679 27.0456 14.1108 27.3446C14.5537 27.6435 15.0633 27.8291 15.5947 27.8851C16.1261 27.9411 16.6631 27.8657 17.1586 27.6657C16.7829 26.9301 16.5877 26.1156 16.5894 25.2896V21.3744Z" fill="#313A5A"/>
<path d="M27.0336 21.3744V25.2909C27.0336 26.1461 26.8286 26.9529 26.4644 27.6657C26.9598 27.8657 27.4969 27.9411 28.0283 27.8851C28.5597 27.8291 29.0693 27.6435 29.5122 27.3446C29.9551 27.0456 30.3178 26.6425 30.5686 26.1706C30.8193 25.6988 30.9503 25.1725 30.9501 24.6382V21.3744C30.9501 21.0281 30.8126 20.6961 30.5678 20.4512C30.3229 20.2064 29.9909 20.0688 29.6446 20.0688H26.6837C26.9056 20.4527 27.0336 20.8979 27.0336 21.3744Z" fill="#313A5A"/>
</svg>
