<svg width="43" height="43" viewBox="0 0 43 43" fill="none" xmlns="http://www.w3.org/2000/svg">
<circle cx="21.551" cy="21.3757" r="20.5402" stroke="#313A5A" stroke-opacity="0.1" stroke-width="0.696279"/>
<path d="M24.4231 13.7159C24.0806 13.7159 23.7414 13.7834 23.4249 13.9145C23.1085 14.0456 22.8209 14.2377 22.5787 14.4799C22.3365 14.7222 22.1443 15.0097 22.0133 15.3262C21.8822 15.6426 21.8147 15.9818 21.8147 16.3244C21.8147 16.6669 21.8822 17.0061 22.0133 17.3226C22.1443 17.639 22.3365 17.9266 22.5787 18.1688C22.8209 18.411 23.1085 18.6032 23.4249 18.7343C23.7414 18.8653 24.0806 18.9328 24.4231 18.9328C25.1149 18.9328 25.7784 18.658 26.2676 18.1688C26.7567 17.6796 27.0316 17.0162 27.0316 16.3244C27.0316 15.6326 26.7567 14.9691 26.2676 14.4799C25.7784 13.9908 25.1149 13.7159 24.4231 13.7159Z" fill="#313A5A"/>
<path d="M18.5481 15.0193C18.0288 15.0193 17.5307 15.2256 17.1634 15.5929C16.7962 15.9601 16.5898 16.4582 16.5898 16.9776C16.5898 17.4969 16.7962 17.995 17.1634 18.3623C17.5307 18.7295 18.0288 18.9359 18.5481 18.9359C19.0675 18.9359 19.5656 18.7295 19.9328 18.3623C20.3001 17.995 20.5064 17.4969 20.5064 16.9776C20.5064 16.4582 20.3001 15.9601 19.9328 15.5929C19.5656 15.2256 19.0675 15.0193 18.5481 15.0193Z" fill="#313A5A"/>
<path d="M20.5066 21.5374C20.509 21.1927 20.6476 20.863 20.8922 20.6201C21.1368 20.3772 21.4674 20.241 21.8121 20.241H27.0342C27.3804 20.241 27.7125 20.3785 27.9573 20.6233C28.2022 20.8682 28.3397 21.2002 28.3397 21.5465V25.4631C28.3396 25.8739 28.2753 26.2823 28.1491 26.6733C27.86 27.5593 27.2646 28.3133 26.4696 28.7998C25.6746 29.2864 24.7322 29.4735 23.8117 29.3278C22.8911 29.182 22.0527 28.7128 21.4469 28.0045C20.8412 27.2962 20.5078 26.3951 20.5066 25.4631V21.5465V21.5374Z" fill="#313A5A"/>
<path d="M19.201 21.5465C19.201 21.07 19.3276 20.6248 19.5509 20.241H16.5899C16.2437 20.241 15.9116 20.3785 15.6668 20.6233C15.422 20.8682 15.2844 21.2002 15.2844 21.5465V24.8103C15.2842 25.3447 15.4153 25.8709 15.666 26.3428C15.9167 26.8146 16.2795 27.2178 16.7224 27.5167C17.1653 27.8156 17.6748 28.0012 18.2063 28.0572C18.7377 28.1132 19.2747 28.0379 19.7702 27.8378C19.3944 27.1022 19.1993 26.2877 19.201 25.4617V21.5465Z" fill="#313A5A"/>
</svg>
