<svg width="15" height="14" viewBox="0 0 15 14" fill="none" xmlns="http://www.w3.org/2000/svg">
<g clip-path="url(#clip0)">
<path d="M11.5213 4.62184C12.6048 5.63175 13.2738 7.08114 13.2443 8.68616C13.1898 11.6598 10.7202 14.0442 7.7464 14C4.79268 13.9561 2.41177 11.5486 2.41177 8.58441C2.41177 7.65883 2.64384 6.78744 3.05337 6.02545C3.11817 5.90486 3.28344 5.88474 3.37591 5.98569C3.64645 6.28106 4.19218 6.78484 4.79046 6.81571C4.79046 6.81571 4.09549 1.96949 8.74256 0.017122C8.91568 -0.0556124 9.08523 0.127618 8.99782 0.293786C8.68295 0.892232 8.27179 1.95235 8.63234 2.93566C9.06959 4.12817 10.3924 4.0133 10.4223 6.38841C10.4223 6.38841 10.9633 5.7887 11.1894 4.72684C11.2217 4.57486 11.4076 4.51588 11.5213 4.62184Z" fill="#FD8087"/>
<path d="M8.54241 13.9538C8.30881 13.9844 8.07037 14.0004 7.82852 14.0004C4.83703 14.0004 2.41177 11.576 2.41177 8.58422C2.41177 7.65871 2.64376 6.7873 3.05326 6.02544C3.11823 5.90459 3.28357 5.88509 3.3763 5.98626C3.5534 6.1795 3.84811 6.46163 4.19822 6.64216C3.96635 7.24498 3.83956 7.89975 3.83956 8.58425C3.83956 11.3339 5.88845 13.6043 8.54241 13.9538Z" fill="#FE646F"/>
<path d="M8.99757 0.294554C8.92224 0.43778 8.84138 0.607448 8.7669 0.796147C5.67432 3.02264 6.2183 6.81598 6.2183 6.81598C5.58321 6.78314 5.00725 6.21745 4.75681 5.9339C4.79864 4.4438 5.33075 1.45035 8.74303 0.0170692C8.91614 -0.0556652 9.08496 0.128386 8.99757 0.294554Z" fill="#FE646F"/>
<path d="M10.5005 11.3298C10.5005 12.0677 10.2013 12.7353 9.71789 13.2187C9.23445 13.7022 8.5663 14.0008 7.82849 14.0008C6.35337 14.0008 5.15747 12.8055 5.15692 11.3304C5.15692 11.3298 5.15692 11.3298 5.15692 11.3293C5.15058 10.8142 5.25328 10.2122 5.53418 9.52004C5.57293 9.42458 5.67708 9.37334 5.77596 9.40224L6.69747 9.67158C6.72845 8.03951 7.90806 7.22455 8.44268 6.9384C8.56505 6.87291 8.7147 6.94885 8.73474 7.08617C8.82211 7.68494 9 8.26244 9.32362 8.79124C9.59435 9.23298 9.85031 9.61139 10.1464 10.0352C10.4029 10.4031 10.5027 10.8886 10.5005 11.3298Z" fill="#FEF48B"/>
<path d="M8.25694 13.9667C8.11759 13.9892 7.97453 14.0009 7.8286 14.0009C6.3534 14.0009 5.1575 12.8059 5.15692 11.3307C5.15692 11.3301 5.15692 11.3301 5.15692 11.3295C5.15058 10.8145 5.25317 10.2125 5.5341 9.52036C5.57285 9.4249 5.677 9.37366 5.7759 9.40259L6.36882 9.57592C6.10441 10.2447 6.00731 10.8284 6.0136 11.3295V11.3307C6.01418 12.66 6.98534 13.7619 8.25694 13.9667Z" fill="#FEF056"/>
<path d="M8.76754 7.28717C8.21697 7.71865 7.57677 8.47594 7.55421 9.67242L6.71126 9.42597C6.8485 7.95827 7.93462 7.2114 8.44193 6.93977C8.56475 6.87401 8.7146 6.94997 8.73481 7.08781C8.74459 7.15461 8.7555 7.22108 8.76754 7.28717Z" fill="#FEF056"/>
</g>
<defs>
<clipPath id="clip0">
<rect width="14" height="14" fill="white" transform="translate(0.828568)"/>
</clipPath>
</defs>
</svg>
